<svg xmlns="http://www.w3.org/2000/svg" viewBox="0 0 285.36 284.42"><defs><style>.cls-1{fill:#fff;}</style></defs><title>art</title><g id="Layer_2" data-name="Layer 2"><g id="Layer_1-2" data-name="Layer 1"><path class="cls-1" d="M5.94,119.12a3.12,3.12,0,0,1-.77,1.47c-.1.09.53,1.33.85,1.34a2.53,2.53,0,0,1,1.71.73l.12.11a17.17,17.17,0,0,0,1.49,1.58c.72.55,2.13.92.9,2.31-.05,0,.32.51.53.75a.38.38,0,0,0,.37,0c1-1.37,1.92-2.73,2.83-4.13,0-.08-.31-.53-.56-.66a.89.89,0,0,0-.8,0c-1.18,1.22-1.93.31-2.71-.5-.06-.07-.14-.12-.2-.2-.62-.82-1.34-1.59-1.89-2.44,0,0-.07-.1-.1-.16a6.14,6.14,0,0,1-.34-.62c-.2-.42.1-1.08.32-1.71.06-.18.11-.36.15-.53h0s0-.07,0,0c0-.15-.11-.32-.17-.48h0C6.34,116.58,6.28,117.92,5.94,119.12Zm279.41,23c0-2.13-.67-4.11-.63-6.2,0-2.24,0-4.48,0-6.71,0-.19.07-.44,0-.55-.92-1.23-.48-2.65-.52-4s-.73-2.73-.65-4.24a13.14,13.14,0,0,0-.61-5.31c-.38-1-.05-2.07-.5-2.86-.89-1.57-.82-3.36-1.45-5a32.4,32.4,0,0,1-1.57-5.24,45.51,45.51,0,0,0-1.89-5.91c-1.4-3.9-3.13-7.66-4.78-11.44a118,118,0,0,0-5.66-10.8c-1.58-2.81-3.32-5.52-4.93-8.31-1.48-2.59-3.28-5-4.86-7.48-.53-.84-1.49-1.41-2.07-2.23a71.72,71.72,0,0,0-7.34-9,43.66,43.66,0,0,1-4.09-4.19,11.15,11.15,0,0,0-2.46-2.85c-2.35-1.53-4-3.73-6.06-5.58-.35-.31-.61-.76-1-1a28.44,28.44,0,0,1-5.49-4.34,40.84,40.84,0,0,0-4.91-3.65c-1.29-.86-2.77-1.43-4.07-2.29s-2.51-2.27-4.33-2.39c-2.32-2.07-5.2-3.16-7.91-4.54a31,31,0,0,1-4.17-2c-1.3-.93-3.07-.89-4.14-2.19-3-.36-5.32-2.56-8.31-2.89-1.95-1.35-4.39-1.54-6.44-2.68s-4.86-.67-6.9-2.24c-.18-.14-.56,0-.83,0a35.8,35.8,0,0,1-4.87-1c-1.74-.53-3.6-.73-5.4-1.14-1.28-.29-2.63-.09-4-.53a18.34,18.34,0,0,0-3.94-.54c-4-.38-8.07.26-12.07-.63a1.9,1.9,0,0,0-2,.46c-.53-.79-1.35-.51-2-.47-2.63.18-5.25-.27-7.91.45-1.82.49-3.9,0-5.84.13s-3.72.59-5.64.57a12.56,12.56,0,0,0-5.3.64c-1.28.59-2.6.1-3.85.9-1,.65-2.63.3-3.9.69-1.83.55-3.81.49-5.55,1.43a6.3,6.3,0,0,1-2.2.74c-4.3.46-8.08,2.6-12.18,3.71a34.58,34.58,0,0,0-5.67,2.5Q75.13,16.33,66,21.32a2.48,2.48,0,0,0-.67.4c-1.43,1.5-3.42,2.19-5,3.49-1.42,1.18-3.12,2-4.5,3.25-2,1.79-4.51,3-6.29,5.11-1.34.19-1.92,1.37-2.69,2.21S45.12,37.07,44.44,38s-2.11,1.68-3,2.63a49.06,49.06,0,0,0-5,5.45c-1.49,2.05-3.73,3.51-5.09,5.73-1.64,2.68-4.6,4.34-5.73,7.42-1.32.91-1.54,2.63-2.6,3.65S21.8,66,20.22,66.85q-2.37,4.32-4.75,8.65A105.07,105.07,0,0,0,8.16,92.33C7,95.6,6,98.9,5,102.2c-.37,1.16-.11,2.4-.63,3.36a6,6,0,0,0-1,3.52c-1.15,1-.54,2.38-.85,3.55-.62,2.37-1.63,4.72-1.4,7.27A2.65,2.65,0,0,1,1,121.25C.13,123,.69,124.7.89,126.44a21.08,21.08,0,0,0,1.33-4.77c.28-2.57.69-5.11,1.17-7.64A24.47,24.47,0,0,1,4,110.94c.44-1.38.47-2.87,1.36-4.2A73.52,73.52,0,0,0,9,100.13c.35-.66.76-.71,1.11-.12,1.14,1.86,2.23,3.75,3.37,5.6.92,1.49,1.81,3,2.86,4.4a41,41,0,0,0,3.56,4.11,2.69,2.69,0,0,1,.51,3.44,47.79,47.79,0,0,0-2.9,7.73c-.83,2.63-2.33,5.11-2.36,8-1.48,2.56-1.53,5.55-2.1,8.32a45.83,45.83,0,0,0-1.39,8.18c-.07,2.42-.76,4.89-1,7.37,0,.22-.19.56-.35.61a.79.79,0,0,1-.71-.22,43.17,43.17,0,0,1-4-5.62,47.52,47.52,0,0,1-4-7.87,5.3,5.3,0,0,1-.49-1.47c0-4.19,0-8.39-.06-12.58A2.32,2.32,0,0,1,2,128.12c.81-.77.72-.72,1.39.27l.2.31h0a4.27,4.27,0,0,0,2.12,2.39l-.11.1a2.7,2.7,0,0,0,.34.25H6a1.32,1.32,0,0,0,.17-.17L5.86,131l-.12.12a.77.77,0,0,0-.13-.12,3,3,0,0,0-.21-1c-.4-.68-.93-1.29-1.34-2a.76.76,0,0,1,0-.73.86.86,0,0,1,.72-.18c.65.21,1.27.53,1.91.76,1.65.61,1.66.6,1.71-1.32,0-.16-.11-.32-.21-.59a6.21,6.21,0,0,1-3.76-.83c-1.14-.72-1.55-.38-2.2.92-.21.42-.71,1-1.12,1-.77.07-1.12.17-1.11,1.07,0,6.51,0,13,0,19.52a.58.58,0,0,0,0,.16,6.94,6.94,0,0,0,.46.53c0,.44,0,.83,0,1.2,0,.17,0,.35,0,.53s0,.35,0,.52c-.06.74-.3,1.47-.3,2.2s.27,1.39.3,2.1a52.66,52.66,0,0,0,.69,5.34c.34,2.36.78,4.72,1,7.1,0,.28-.11.72,0,.82,1.11.83.25,2.08.69,3.08A17.14,17.14,0,0,1,3.61,174c.26,1,.66,2,.87,3,.8,3.83,2.3,7.47,3.2,11.25.47,2,1.36,3.75,2,5.64a19.28,19.28,0,0,0,1.76,4.55c1.53,2.37,1.92,5.25,3.72,7.43a4.77,4.77,0,0,0,1.42,3.29c.87,1,.52,2.59,1.89,3.17,1,2.18,2.51,4,3.74,6,1.1,1.81,1.76,3.91,3.57,5.24a2.13,2.13,0,0,1,.56.6A77.34,77.34,0,0,0,35.42,236c.53.58.87,1.34,1.41,1.91s1.27.91,1.77,1.48c2.13,2.36,4.2,4.78,6.29,7.17a2.75,2.75,0,0,0,.59.59c2.36,1.44,4.46,3.24,6.67,4.89.78.58,1.06,1.51,1.91,2s1.66.94,2.48,1.43a1.64,1.64,0,0,1,.4.39c1.54,1.81,4.1,2.32,5.48,4.33,1.54.17,2.28,1.77,3.57,2.17a18.19,18.19,0,0,1,4.09,2.25,52,52,0,0,0,6.79,3.89c3,1.25,5.81,3,8.81,4.38,2.53,1.13,5.12,2,7.72,3,1.3.46,2.61.89,3.91,1.37s2.74.47,3.71,1.09c1.27.81,2.83.43,3.9,1.46,2.61.34,5,1.4,7.69,1.73a18,18,0,0,1,3.92.62,36,36,0,0,0,4.08.89,33.75,33.75,0,0,0,4.22.62c2.15.28,4.31,0,6.5.53,1.66.42,3.52.08,5.29.08s3.74.13,5.59,0c1.63-.15,3.14.5,4.87.14,2.55-.52,5.24.1,7.88-.59,1.7-.44,3.58.11,5.36-.58.81-.31,1.85,0,2.77-.07s1.89-.41,2.85-.52c1.42-.18,2.76-.93,4.24-.58,2.86-1.13,5.94-1.34,8.88-2.16,1.34-.37,2.66-.8,4-1.19a19.73,19.73,0,0,0,4-1.18c1.25-.7,2.66-.63,3.92-1.4,1.58-1,3.58-1.2,5.33-1.93a21,21,0,0,0,3.6-1.47c1.14-.73,2.67-.88,3.75-1.68s2.69-.69,3.36-2.11c.08-.17.45-.21.69-.3a65.73,65.73,0,0,0,8.35-4.18c1.37-.79,2.58-1.78,4-2.56a100,100,0,0,0,11.12-7.58c1.46-1.1,2.66-2.56,4.15-3.5,2.89-1.83,4.58-4.93,7.52-6.64,2.53-3.34,5.53-6.26,8.36-9.35a15.58,15.58,0,0,0,1.56-1.59,37.07,37.07,0,0,1,4.55-5.67,18.06,18.06,0,0,0,1.27-1.68c1.82-2.28,3.24-4.83,4.88-7.22a10.13,10.13,0,0,0,1.29-2.84c.29-1,1.53-1.56,2.11-2.48a27.9,27.9,0,0,0,2.11-4.15c.95-2.33,2.44-4.38,3.37-6.71a17.18,17.18,0,0,1,.82-2.45,51.08,51.08,0,0,0,3.23-7.06,55.66,55.66,0,0,0,2.39-7.41c.45-1.73.93-3.53,1.41-5.26s.91-3.57,1.34-5.35c.32-1.34.16-2.71.55-4a18.39,18.39,0,0,0,1-5.72c0-.36-.07-.87.13-1,.78-.71.26-1.58.43-2.36a22.86,22.86,0,0,0,.54-2.56c.18-2.07-.36-4.2.58-6.2C284.32,149.35,285.29,145.74,285.35,142.08Zm-7.19-40.68.1-.1.27.33-.17.17h0a2.46,2.46,0,0,1-.34-.25l.13-.13Zm-4.13-11a1.38,1.38,0,0,1,.08.17c1.1,2.94,2.24,5.86,3.34,8.8.24.63.38,1.31.56,2-.2-.14-.48-.24-.67-.4l0,0a.65.65,0,0,1-.13-.16,43.72,43.72,0,0,0-3.85-6.09,2.33,2.33,0,0,1-.33-1.22c0-.67,0-1.33,0-2,0-.43,0-.86,0-1.29C273.34,90.19,273.77,90,274,90.37ZM243.89,45l.43-.34,9.13,10.46c-.94.87-1.69-.15-2.09-.47a22,22,0,0,0-3.63-2,32.41,32.41,0,0,1-3.12-1.85,2,2,0,0,1-.68-1.35C243.84,48,243.89,46.49,243.89,45Zm-.55,7.91c0-.66.8-1.23,1.24-.82,1.65,1.52,3.85,2,5.66,3.22,1.3.86,2.68,1.61,4,2.38a10.84,10.84,0,0,1,4.12,4.11c1.2,2,2.44,4,3.75,6a54,54,0,0,1,3.16,5.4c1.66,3.22,3.41,6.4,5.11,9.61.76,1.44,1.3,3,2.15,4.41a2.93,2.93,0,0,1,.13,2.9s0,0,0,.08a5,5,0,0,0-.25.92,15.43,15.43,0,0,0,0,1.63c-1.41-1.74-3-2.77-3.94-4.32-.11-.2-.22-.4-.32-.61-1.48-.47-1.94-2-2.91-2.94s-2.13-1.74-2.58-3.11c-1.55-.14-1.67-1.71-2.54-2.52-1.26-1.17-2.58-2.27-3.91-3.37s-2-2.61-3.7-3.19c-.4-.13-.67-.63-1-1a54.9,54.9,0,0,0-8.58-6.91,3.08,3.08,0,0,1-1.18-3.61c.33-1.17.69-2.32,1-3.49a14,14,0,0,0,.54-2.28C243.41,54.61,243.32,53.77,243.34,52.93Zm32.41,92.82c.05,0,0,.18,0,.27.18,2.06.35,4.13.56,6.19.16,1.51.33,3,.57,4.52a2.46,2.46,0,0,1-1.46,2.7,19.52,19.52,0,0,0-4.28,3.2,30.7,30.7,0,0,1-3.73,2.44,48.89,48.89,0,0,1-5.15,3.07,28,28,0,0,1-4.41,1.92,29.71,29.71,0,0,1,0-3c.38-3.41-.77-6.72-.57-10.11-.92-1.9-.41-3.94-.58-5.91a10.09,10.09,0,0,0-.57-2.84c-.9-2.3-.91-4.8-1.63-7.14s-1.26-4.88-2-7.29c-.87-3-1.78-6-2.8-8.91-.16-.46-.06-.59.18-.8,2.5-2.16,4.33-5,7.28-6.72,1.19-2.51,4-3.72,5.16-6.24.17-.37.73-.84,1-.78.45.09,1.12.58,1.14.93.06,1.6,1.2,2.71,1.65,4.08s1.27,2.46,1.75,3.75c1.14,3.07,2.28,6.14,3.35,9.23.76,2.21,1.38,4.46,2.1,6.68.36,1.09.05,2.23.63,3.38s.07,2.86.74,3.85C275.56,143.39,274.53,144.86,275.75,145.75ZM256.13,182.7c-.43,2.64-.54,5.32-1.09,7.92-.68,3.2-1,6.46-1.72,9.62a25,25,0,0,1-1,4.59,16.11,16.11,0,0,0-1.21,4.55c-.07.57-.26,2-1.65,1.56-2.68,1.86-6,2.2-8.86,3.56a18.24,18.24,0,0,1-3,.9c-.26.08-.58,0-.79.13a4.4,4.4,0,0,1-2.94,1c-1.08-.14-2,.55-3.11.66s-2.24.4-3.39.5-1.7-.14-1.32-.88c.81-1.56.18-3.33,1-4.9a7.16,7.16,0,0,0,.66-3.65,10.37,10.37,0,0,1,.52-2.83c.37-1.4.37-2.86.65-4.22a30.88,30.88,0,0,0,.49-4.26,14.72,14.72,0,0,1,.52-2c.14-.69-.26-1.45.41-2.09.2-.19.18-.68.15-1-.28-3.67,1-7.26.59-10.94a1.68,1.68,0,0,1,1.42-1.82c3.34-.28,6.47-1.49,9.66-2.36,2.46-.67,5.06-1.12,7.37-2.39a15,15,0,0,1,2.71-.87c.74-.24,1.48-.48,2.21-.74s1.16-.46,1.74-.7c.25.74.49,1.48.73,2.18C255.77,177,256.58,179.94,256.13,182.7ZM143.75,256.07c-.05-1.42.23-2.83-.45-4.28a3.75,3.75,0,0,1,.2-2.92,3.62,3.62,0,0,0,.18-2.9,4.78,4.78,0,0,1-.45-2.9c0-5.21,0-10.42,0-15.91h2.12c3,0,6,0,8.94,0,5.71.11,11.38-1,17.08-.5.62.05,1-1.06,1.46-.22.16.33-.34,1-.4,1.46-.1.72,0,1.47-.13,2.19s-.44,1.33-.52,2a35.78,35.78,0,0,1-.64,5.33c-.85,2.94-.85,6.06-2,8.92a10.28,10.28,0,0,0-.15,2.18c-.11.68-.4,1.33-.54,2a15.53,15.53,0,0,1-.63,3.09,3.76,3.76,0,0,0-.5,1.75c.12,1.9-.84,3.58-1.14,5.4a1.22,1.22,0,0,1-1.37,1h-.28c-2.33,0-4.74-.38-7,.1a34.89,34.89,0,0,1-6.5.44c-2.32.07-4.65,0-7.24,0C143.77,260.14,143.83,258.1,143.75,256.07Zm-4.59-5.43c-1.2,0-2.4,0-4.06,0,.54.54.78,1,1.1,1,.8.17,1,.27.63,1.21a22.84,22.84,0,0,0-.89,3.82,8.09,8.09,0,0,0-.51,2.29c.1,1.17-.45,1.24-1.31,1.14a1,1,0,0,0-.55,0c-.18.14-.4.38-.39.57s.27.51.44.51c1.47,0,2.94,0,4.43,0-.2-1.5-.38-2.88-.57-4.38h4.6c.13,1.49-.27,3.1.38,4.72l.07.16c0,.05.05.11.08.17a2.68,2.68,0,0,0,.18.33c-1.06.23-2.09,0-2.94.64a1.37,1.37,0,0,1-1.33,0c-.88-.92-1.92-.47-2.88-.5s-2,.27-3,.27c-1.17,0-2.34-.23-3.51-.28a20.82,20.82,0,0,0-3.35,0,4.75,4.75,0,0,1-2.5-.73,1.55,1.55,0,0,1-.72-1.07c-.3-2.56-1.34-5-1.18-7.64a11.31,11.31,0,0,0-.52-2.56c-.68-3.67-1.32-7.33-1.68-11-1-1.07-.1-2.57-.71-3.61s-.21-2.33-.41-3.47-.37-2.08-.56-3.12-.31-1.9-.5-3c2.08.12,4.21-.62,6.34.39a5.06,5.06,0,0,0,1.92.09h12.3c.37,0,.81.12,1.1,0,.91-.46,1.75,1,2.62,0,.2.19.53.37.57.59a14.09,14.09,0,0,1,.25,2.42c0,3.44,0,6.89,0,10.34s-.43,7,.75,10.5A15.73,15.73,0,0,1,139.16,250.64Zm3.43,5.83a3.06,3.06,0,0,1-.21.29l0,0-.1-.1-.15-.15.33-.26c.06.06.15.13.17.16Zm-1.52-3.93a8.87,8.87,0,0,0-.09,1.63,1.29,1.29,0,0,1-1.21,1.51l-1.59.28c.13-.5.24-1,.39-1.5.26-.91.08-2,.73-2.75.19-.23.43-.43.71-.71.5.31.88.51,1.22.76C141.75,252.13,141.11,252.28,141.07,252.54ZM34.14,202.71c-.92-1.39-.13-3.09-.73-4.44-.68-1.56-.15-3.08-.39-4.59a14.66,14.66,0,0,1-.59-3.68c.09-1.23.33-2.54-.51-3.69-.13-.18-.05-.55,0-.82.14-1.07-.12-2.12.3-3.23.3-.75-.24-1.81-.29-2.74-.07-1.11,0-2.23,0-3.35v-3.26a6.72,6.72,0,0,1,2.56.47,56.58,56.58,0,0,0,7.14,2.3c3.6,1,7.16,2.15,10.84,2.83.41.07.82.56,1.17.51,1.36-.22,1.26.62,1.23,1.48a14.24,14.24,0,0,0,0,2c.14,1.32.37,2.64.54,4s-.38,2.52.52,3.71c.27.35.11,1.09,0,1.64-.37,2.67.26,5.3.69,7.85.55,3.21.83,6.5,1.66,9.63.64,2.42.81,5,1.87,7.31.24.53-.24.93-.85.8-3.68-.76-7.27-1.85-11-2.54a26.93,26.93,0,0,1-3.17-1.08,22.94,22.94,0,0,0-3.38-.66c-1-.18-1.95-1-3.18-1.1a7.77,7.77,0,0,1-2.77-1.33,1.18,1.18,0,0,1-.55-.86C35.44,207.34,33.81,205.18,34.14,202.71Zm-1.69-37.19c-.4-2.58.3-5.11.7-7.57.47-2.84.32-5.81,1.49-8.57a13.26,13.26,0,0,0,.51-3.38,49.12,49.12,0,0,1,1.78-6.56c.58-2.18,1.12-4.38,1.69-6.57a16.83,16.83,0,0,1,.58-2c.09-.26.43-.42.62-.6a8.34,8.34,0,0,1,.92.28l9.58,4.54c1.78.85,3.58,1.68,5.35,2.57,1.53.76,1.51.8,1,2.29,0,.17-.18.31-.2.48-.2,2-.35,3.94-.58,5.91-.12,1.05-.39,2.08-.53,3.12s.3,2.18-.55,3.14c-.18.21,0,.73,0,1.1-.25,3.08.56,6.22-.51,9.28-.11.3.81.78,0,1.21,1,1.2.41,2.63.5,4,.11,1.48,0,3,0,4.46s.08,2.8-.05,4.19c0,.57-.3,1.72-1.33.6-1.85.28-3.38-.88-5.09-1.24s-3.47-.45-4.94-1.52c-2.53.09-4.64-1.51-7.09-1.78-.64-.07-1.18-.73-1.83-1-1-.36-2.5,0-2.57-1.58,0-1-.37-2.16.37-3.2A2.5,2.5,0,0,0,32.45,165.52Zm98.63-137a11.27,11.27,0,0,0-4.32-1.07,12.84,12.84,0,0,1-4.47-.64,5.63,5.63,0,0,0-2.62-.43,14.6,14.6,0,0,1-4.25-.55c-1.27-.38-2.6,0-4-.47a17,17,0,0,0-4.76-.6c-4.13-.13-8.21-1-12.35-.67a1.58,1.58,0,0,1-.88-.39c-.06,0,0-.4.08-.5,2.42-2.2,3.84-5.24,6.27-7.43.46-.41.63-.33,1.23-.12,2.21.75,4.46,1.37,6.59,2.33A42.22,42.22,0,0,0,113,19.93c2,.59,3.81,1.6,5.75,2.32,4.52,1.67,8.9,3.71,13.48,5.25a5.25,5.25,0,0,1,2,1.31c.5.49,0,1.45-.76,1.45-3.17,0-6.34-.05-9.51,0-1.79.05-3.65-.46-5.37.51-.29.16-.78-.08-1.1.05-.9.34-1.63-.66-2.66-.1-.72.39-1.85-.07-2.75.1a35.41,35.41,0,0,1-7.89.54c-1.79,1.06-3.75.45-5.64.53a27.65,27.65,0,0,0-5.19,1,19.64,19.64,0,0,1-2.7.21c.68-2.76.89-5.31,2-7.91,1.52.34,3.34-.56,5.05.57a1.54,1.54,0,0,0,.83,0c4-.42,8,.78,12.07.6a19,19,0,0,1,3.12.51,16.8,16.8,0,0,1,3.16.48,29.88,29.88,0,0,0,5.32.66c1,.12,1.9.38,2.85.54s1.89-.15,2.9.48c.74.46,2,.1,3,.08.55,0,1.26,1.45,1.57,0C132.75,28.14,131.58,28.75,131.08,28.52Zm4.09-.56h0a2.7,2.7,0,0,1-.34-.25l0,0,0,0,.18-.18.27.33A2.07,2.07,0,0,1,135.17,28Zm.93.77h0a.1.1,0,0,1,0,0l.12-.07h0a.67.67,0,0,1,.41.09l.33.15c-.12.28-.18.74-.38.81a5.9,5.9,0,0,1-1.6,0A13,13,0,0,1,136.1,28.73Zm-1.38-1.13v0l-.56-.18-.16-.05a5.85,5.85,0,0,1-.71-.24h0l-.21-.12a.69.69,0,0,1-.17-.17c-.74-1.13-2-1.18-3-1.55-1.46-.53-2.89-1.1-4.31-1.74a22.08,22.08,0,0,0-5-2.09c-1.1-.2-1.65-1-2.57-1.27a20.54,20.54,0,0,1-2.73-.83,75.34,75.34,0,0,0-8.22-3.1c-1.55-.49-3.09-1.07-4.61-1.68-.82-.32-.9-.85-.16-1.26,3-1.63,5.52-4,8.87-4.88a3,3,0,0,0,.72-.28c1.39-.82,1.31-.73,2.36.08,3.2,2.47,5.87,5.6,9.36,7.72a3.66,3.66,0,0,1,.4.39c1.64,1.65,3.25,3.33,4.94,4.93s3.27,2.89,4.89,4.37a6.08,6.08,0,0,1,1,1.26C134.88,27.05,134.77,27.3,134.72,27.6Zm-8.78,8.7a15.55,15.55,0,0,1-2.29,1.11l-.28.07c-2.19.37-4,1.57-6,2.37a56.72,56.72,0,0,0-11.61,6.35c-2.42.54-4,2.74-6.51,3.15-.39,1.49-2,1.39-2.93,2.3s-1,.63-1.88-.51c-.21-.3-.63-.49-.76-.81A5.54,5.54,0,0,1,93,47.89c0-.46,1-.87,1.65-1.18a63.47,63.47,0,0,1,8.82-3.65c2.52-.84,4.94-2,7.49-2.82a52,52,0,0,0,5.19-1.62c1.66-.76,3.47-1,5.18-1.64,1.35-.47,2.64-1.2,4.17-.82A2.44,2.44,0,0,1,125.94,36.3Zm-.07-.69.33-.26c.06.06.16.14.17.16h0a1.66,1.66,0,0,1-.25.34h0l-.19-.19Zm15,42.55a2.24,2.24,0,0,0-.35,2.58,5.32,5.32,0,0,1,.44,3.17c-.05,1,.54,2.23-.5,3.15-.09.08.1.48.17.73A5.43,5.43,0,0,0,141,89c.61,1-1.05,1.73-.22,3,.56.86.18,2.33.2,3.53s0,2.21,0,3.51c-2.29,0-4.5,0-6.71,0-.19,0-.38.27-.57.41.2.23.43.67.6.65,1.47-.19.65.53.55,1.13-.36,2-1.32,3.85-1.17,6a1.23,1.23,0,0,1-1.36,1.33H131c0,.18,0,.37,0,.56.91,0,1.83-.07,2.73,0s1.67-.41,2.38.36a2.93,2.93,0,0,0,.74-.49s-.13-.42-.24-.44c-1.05-.17-1.49-.93-1.17-1.77a2.15,2.15,0,0,1,2-1.62c1.13,0,2.24-.23,3.47-.37v6.46c-.6,0-1.31.08-2,.08-2.51,0-5-.14-7.53,0-4,.28-7.84-.8-11.79-.63-.93,0-1.79-.81-2.84-.56a.91.91,0,0,1-.31-.62c.1-.41.55-.81.5-1.17-.37-2.58.74-5,.63-7.59a16,16,0,0,1,.53-3.4c.19-1-.52-2.23.54-3.14.09-.08,0-.35,0-.54a13.92,13.92,0,0,1,.49-4c.36-1.15-.15-2.52.63-3.66-.51-2.85,1.11-5.41,1.12-8.19.81-1,.46-2.23.62-3.56,3.35.29,6.45,1.43,9.67,1.74s6.5.48,9.87.72C141,77.32,141.08,77.92,140.85,78.16Zm.12,44.58c.22.94-.37,2,.48,2.9.15.16-.5.93-.44,1.38.24,2-.67,4,.5,5.93a1.86,1.86,0,0,1,0,1.1c-.14.87.25,1.74-.33,2.67-.29.47.2,1.43.33,2.17.17.93-.41,1.29-1.09,1s-1.19,0-1.79,0a24.54,24.54,0,0,1-3.68-.47c-.22,0-.47.17-.71.27.15.28.27.76.46.8,1.37.24.92,1,.69,1.86-.52,1.94-.89,3.92-1.34,6a12.27,12.27,0,0,0-1.6,0,.67.67,0,0,0-.41.53c0,.19.25.52.41.53.74.06,1.49,0,2.23,0h3.37c-.06-.25-.07-.49-.12-.49-.78-.1-1.73.12-1.47-1.28.19-1,.47-1.57,1.43-1.56a5.9,5.9,0,0,0,2.58-.55c.45-.2,1.09-.18,1.06.74-.06,1.75,0,3.5,0,5.38-3.1,0-6.12.36-9-.11-2.56-.43-5.13,0-7.59-.53-2.82-.57-5.63-.34-8.44-.51a9.43,9.43,0,0,1-2.77-.71c-.35-.13-1.07-.58-.23-1.15,0-1.75.14-3.52.06-5.27-.15-3.21,1-6.33.58-9.54,1-1.6.37-3.39.56-5.08.16-1.32.45-2.63.53-4s-.26-2.87.1-4.16a19.36,19.36,0,0,0,.5-4,37.54,37.54,0,0,1,.56-4c.15-.73.33-1.68,1.45-.78.11.09.36,0,.55,0a42.36,42.36,0,0,1,6.75.52,38.32,38.32,0,0,0,6.69,0c1-.09,1.81.67,2.94.16.71-.33,1.84.36,2.8.44s2.19,0,3.42,0v1.49a17.36,17.36,0,0,0,.08,4.45C141.43,120.34,140.67,121.49,141,122.74Zm52.58-80.6c2.34-.53,4.18.58,6,1.22,4.47,1.54,8.87,3.29,13.22,5.18,2,.85,3.88,1.86,5.88,2.65A56,56,0,0,1,226.31,55a59.26,59.26,0,0,1,6.83,4.46c1.71,1.37,3.59,2.53,5.41,3.77.43.29,1.19.46,1.27.81a2.23,2.23,0,0,1-.42,1.65c-1.66,2.15-2.09,4.92-3.77,7.19-1.26-1-2.62-1.85-3.77-2.94-4.15-3.94-9-6.85-13.73-10-2.38-1.61-4.91-3-7.4-4.38-2.79-1.6-5.44-3.48-8.33-4.86-1.85-.88-3.35-2.66-5.66-2.51-.68-.92-1.87-.94-2.7-1.54-.64-.45-1.67-1-.54-2.16C193.87,44.08,193.55,43,193.55,42.14Zm62.57,118.48c.21,2.8.46,5.6.62,8.41.08,1.34-.23,2-1.37,2.13-2,.3-3.65,1.55-5.67,1.9-1.84.31-3.52,1.43-5.35,1.86-3.9.9-7.6,2.55-11.61,3a7.11,7.11,0,0,0-1.08.34c.26-.74-1.17-1.15-.44-1.88.49-.5.27-1,.38-1.53.18-.88-.48-1.64-.1-2.65.28-.77-.36-1.85-.45-2.81s0-2,0-3.07v-6.15a10.41,10.41,0,0,0-.05-3.06c-.62-1.87-.21-3.81-.6-5.63-.3-1.43-.3-2.85-.51-4.25a32.72,32.72,0,0,0-.62-3.94c-.42-1.52-.48-3.1-1-4.61-.31-.92,0-1.46,1.29-1.71s2.73-1.44,4.08-2.22a7,7,0,0,1,.65-.46c4.51-2.06,8.36-5.13,12.32-8,.14-.11.26-.26.41-.36,1.26-.82,2.12-.62,2.43.87.59,2.81,1.54,5.51,2.27,8.28.47,1.77.9,3.55,1.33,5.32.5,2,1,4.05,1.45,6.1.34,1.63.36,3.32,1.11,4.86a1.08,1.08,0,0,1,0,.54C255.27,154.83,256.67,157.66,256.12,160.62Zm-26.55,17.82a3.29,3.29,0,0,1-2.27,1.11c-2.68-.23-5,1.29-7.65,1.24a15.88,15.88,0,0,0-3.81.87,5.4,5.4,0,0,1-1,.18,9,9,0,0,0-3.43.51c-.93.4-2.07-.08-3.15.54-.7.41-1.82.09-2.75.08-1.4,0-1.55-.24-1.09-1.59a4.16,4.16,0,0,0,.34-1c.07-.88-1.07-1.53-.17-2.72.54-.73.17-2.14.19-3.25s0-2.05,0-3.07V168a28.55,28.55,0,0,0,0-3.07,62.31,62.31,0,0,1-.54-9.84c-.75-1-.47-2.25-.58-3.4s-.47-2.09-.5-3.13c0-.87-.53-2,.38-2.6a6.22,6.22,0,0,1,2.64-1,25.89,25.89,0,0,0,7-2c.15-.07.3-.27.44-.26,2.33.2,4.12-1.38,6.21-1.89,2.46-.59,4.6-2,7.2-2.66.19,2.59,1.09,5,1.35,7.58.12,1.2.37,2.44.47,3.69s.43,2.45.52,3.69-.24,2.67.07,3.9c.81,3.18.43,6.38.5,9.57s0,6.52,0,9.79C229.89,177.08,230,178,229.57,178.44Zm-27,15.11c.36,2.67-.79,5.22-.58,7.88-.95,1.31-.39,2.82-.57,4.24-.13,1.05-.39,2.08-.54,3.12s.35,2.21-.56,3.13c.4,1.66-.38,3.21-.64,4.78-.28,1.72-.07,3.57-1,5.15-.16.27-.35.81-.44.79-1-.2-1.75.66-2.57.56-2.5-.31-4.9.41-7.31.71-2.64.32-5.32.07-7.86.56-2.11.41-4.14.29-6.73.53.5-.54.86-.76.83-.92-.36-2.22.32-4.35.66-6.47.45-2.73.08-5.51.6-8.15.4-2,.1-4,.48-5.93,1-4.94.3-9.92.52-14.88,0-1,0-1,1.09-1.45a3.05,3.05,0,0,1,1-.3c1.9-.05,3.82.21,5.64-.58,3.4.42,6.72-.74,10.11-.59a15.62,15.62,0,0,0,3.13-.52c1-.17,1.94.31,2.89-.5.44-.37,1.44-.06,2.4-.06-.18,2.24.57,4.46-.47,6.68A4.26,4.26,0,0,0,202.52,193.55Zm.43-10.08c-2.25-.21-4.44.86-6.84.66a22.88,22.88,0,0,0-3.4.5c-1.2.09-2.56-.33-3.6.1-1.63.65-3.23.31-4.83.48-2.24.24-4.44,1-7.05.33.65-4.46-.91-8.81-.43-13.22.25-2.31-.6-4.49-.59-6.76s.38-4.55-.09-6.69c-.61-2.74-.29-5.43-.51-8.34,1,0,1.93,0,2.84,0a17.92,17.92,0,0,0,5.18-1,3.18,3.18,0,0,1,1.06-.13c2.55.18,4.86-1.1,7.37-1.13.72-.81,1.69-.45,2.56-.58a20.54,20.54,0,0,0,2.29-.54c.67-.18,1.33-.41,2-.55s1.37,0,1.83-.28c.7-.47.71.23,1,.39.12.06.17.3.19.47.19,2.34.19,4.72.61,7,.6,3.28.07,6.63.63,9.83s.29,6.39.42,9.57c.05,1.23.36,2.56-.53,3.69-.09.12,0,.38,0,.55-.3,1,1.26,1.75.37,2.76C202.7,181.45,203.28,182.4,203,183.47Zm-27.86-37a59.08,59.08,0,0,0-.63-7.31c-.31-1.52-.05-3.18-.59-4.49-.63-1.49,0-3-.52-4.26a8.9,8.9,0,0,1-.49-3.43,18.24,18.24,0,0,0-.68-3.1,23.74,23.74,0,0,0-.51-3.4c-.43-1.16-.18-2.38-.56-3.4s-.17-2.39-.56-3.41a11.86,11.86,0,0,1-.51-3.83c1.6-.32,3-.54,4.36-.88,1.94-.49,3.89-.94,5.8-1.52,3.06-.94,6.12-1.87,9.17-2.83.33-.1.6-.49.9-.5.76,0,1.35-.15,1.86.94a55.94,55.94,0,0,1,2,6.18c.81,2.47,1.26,5,2.06,7.54,1,3.14,1.66,6.4,2.45,9.61.71,2.91,1.2,5.86,1.76,8.8A32.81,32.81,0,0,1,201.4,144a1.39,1.39,0,0,1-1.28,1.47c-2.49.47-5.12.32-7.41,1.68-2.93-.38-5.55,1.39-8.49,1.17a7.64,7.64,0,0,0-3.87.7,6.39,6.39,0,0,1-2.65.35c-.63.06-1.47.16-1.85-.18a4.13,4.13,0,0,1-.74-1.89A3.83,3.83,0,0,1,175.09,146.49Zm-32.46-17.6c0-1.32.51-2.76-.53-4,0-.06,0-.18,0-.28.13-1.15,1-2.09.14-3.52-.6-1-.14-2.72-.14-4.11s0-2.57,0-3.71c3.55-1.08,7-.74,10.48-.84,1.14,0,2.26-.4,3.4-.53s2.37.29,3.4-.57c3.17.32,6.27-1.18,9.46-.39a43.66,43.66,0,0,0,.71,4.74c.37,1.43.22,3,1,4.32.16.27,0,.72,0,1.09.17,1.6.46,3.19.52,4.79a39.4,39.4,0,0,0,.71,4.5,54.32,54.32,0,0,1,1,7.65,17.68,17.68,0,0,0,.52,2.84c.16.86-.26,1.76.47,2.62.32.38,0,1.25.11,1.89.14,1-.34,2,.3,3,.27.42-.57,1.52-1,1.6-2.33.38-4.71.34-7,.67-2.46.36-4.94.05-7.31.51-5.32,1-10.66.09-16.27.62C142.65,143.94,142.68,136.41,142.63,128.89Zm-.46,93.76c-.4.67-.08,1.78-.08,2.83-4.31,0-8.53.4-12.64-.12-3.87-.49-7.69-.3-11.53-.41-.92,0-.84-.47-1.07-1.13a5.62,5.62,0,0,1-.48-2.3,10.52,10.52,0,0,0-.53-3.69c-.31-1.1.38-2.39-.58-3.41-.09-.1,0-.36,0-.55a69.24,69.24,0,0,0-.63-8.42c-.44-2.36-.07-4.77-.58-7-.59-2.57-.32-5.09-.44-7.62a6.1,6.1,0,0,0-.54-2.3c-.2-.43-.22-1.15.72-1.08.65.06,1.42-.21,1.93,0,1.76.92,3.59.42,5.38.5,2,.09,3.92,0,5.87,0,.87,0,1.84-.39,2.61.51.15.17.89,0,1.26-.19a4.7,4.7,0,0,1,3.73-.22c2.34.77,4.54.46,7-.06,0,3-.42,6,.1,8.9.91,5,0,9.92.6,15.09h-6.51a4.54,4.54,0,0,0-1.11,0c-.16,0-.29.41-.33.64s.16.42.26.43c.55,0,1.11,0,1.67,0a13.8,13.8,0,0,1-.61,5.1,2.27,2.27,0,0,0-.2.74c.11,1.37-.41,2.1-1.87,2-.12,0-.37.4-.35.59a.67.67,0,0,0,.47.48,22,22,0,0,0,5-.33,7,7,0,0,1-1-.22c-.22-.08-.52-.24-.56-.42-.35-1.52.09-2,1.73-2.39a33.13,33.13,0,0,0,3.18-1.09c.38-.13.51.06.43.52-.12.7-.16,1.42-.34,2.1S142.76,221.69,142.17,222.65ZM85.61,203.83c-.09-.1,0-.37,0-.55a73.16,73.16,0,0,0-.63-8.41,46.4,46.4,0,0,1-.49-7.61,1.46,1.46,0,0,0-.14-.77c-.31-.36-.73-.92-.23-1.09s.85-.91,1.52-.46a1.22,1.22,0,0,0,.73.25c2.85-.41,5.59.8,8.43.58,1.27-.1,2.34.81,3.68.6a7.9,7.9,0,0,1,3.87,0c1.64.62,3.32.06,4.81.55a22.21,22.21,0,0,0,4.72.54c-.07,3.85,1,7.45.58,11.13.79,1.91.07,4.07.67,5.87.73,2.19-.23,4.53,1,6.56,0,.07,0,.18,0,.28.18,2.62.26,5.26.59,7.86.22,1.67.82,3.3.35,5.16a31.23,31.23,0,0,1-6-.09c-1.89-.37-3.83-.12-5.63-.55-2.08-.5-4.2-.12-6.19-.56a34.89,34.89,0,0,0-5.65-.5,4.48,4.48,0,0,1-2.24-.59,3.11,3.11,0,0,1-.82-1.83c-.46-2.43-.82-4.88-1.22-7.32-.18-1-.46-2.08-.54-3.12a10,10,0,0,0-.53-2.86C85.87,206,86.5,204.76,85.61,203.83Zm-2.24-49.51c.13,4.78-.83,9.5-.61,14.3s0,9.47,0,14.3c-1.49,0-3.15.48-4.16-.12-1.31-.77-2.65.1-3.92-.78-1-.69-2.55-.25-3.89-.64-2.41-.7-4.94-1.09-7.41-1.64-2-.43-3.92-1-5.93-1.26-1.26-.17-1.51-.47-1.53-1.74,0-2,0-3.91,0-5.87,0-.92.16-1,1.2-.41a3.9,3.9,0,0,0,.47.2c.08-.39-.26-1,.43-1.1a13.81,13.81,0,0,1,2.49,0,4.86,4.86,0,0,0,3.17-.83c-.49-1.3-1.68-1.84-2.73-2.54a2.87,2.87,0,0,1-.22,1c-.08.14-.49.11-.75.11H55.19c1.18-1.16.63-2.34.75-3.4,0-.06,0-.12,0-.18a2.09,2.09,0,0,1,.39-.87c0-.07.49.09.69.23a21.22,21.22,0,0,1,2.14,2.2,3.22,3.22,0,0,0,1.81.9l-1.8-2.8c1.6.42,3,.74,4.33,1.2.2.07.13.82.29,1.22a.56.56,0,0,0,1.08-.13c.24-1.39-.49-2.9.51-4.23,0,0-.32-.36-.48-.56-.41-.5-.6,0-.77.21-.32.36-.52,1-.87,1.11a4.18,4.18,0,0,1-1.78-.28c-1.61-.41-3.2-.85-4.8-1.28l-.19-.06c.13-.53.72-1.14.66-1.65,0-.23-.19-.44-.6-.62h0l-.19-.08-.26-.07c-.13,0-.14-.67-.14-1a16.12,16.12,0,0,1,.5-4.82c.44-1.42-.11-3,.52-4.54a16.41,16.41,0,0,0,.52-4.21c.18-1.61,1-3.07.6-4.94,2.65,1,5,1.86,7.33,2.59,2.55.8,5,1.8,7.57,2.66,1.9.64,3.87,1,5.76,1.58,1.48.49,3,.75,4.55,1.16.25.07.61.46.58.66-.18,1.6.49,3.25-.47,4.83C83.08,152.66,83.34,153.58,83.37,154.32ZM56,161c0-.12.18-.26.28-.39l.23.31.14.2-.43.57A3.07,3.07,0,0,1,56,161Zm57-24.93c-.87,3-.41,6-.44,9,0,.77-.81,1.53-.27,2.12.88.94-.69,1.16-.38,1.95s-.43,1.07-.94.8c-1.47-.75-3-.4-4.54-.54-1-.1-2.08-.36-3.12-.54s-2,.43-2.86-.54c-.12-.14-.55,0-.82,0-1.15-.16-2.35.35-3.48-.37-.9-.57-2.21.29-3-.74-2.57.35-4.83-1.1-7.5-1.2.23-1.27-.41-2.55.58-3.69.14-.15,0-.54,0-.82a28.37,28.37,0,0,1,1.07-7.65c.34-1.36.26-2.83.48-4.25a34.58,34.58,0,0,0,.72-3.94,22.89,22.89,0,0,1,.54-4c.55-2.47,1.18-4.92,1.81-7.36.48-1.84,1.06-3.66,1.51-5.52.24-1,.71-1.42,1.69-1.33a12.25,12.25,0,0,1,1.6.19c2,.48,4,1,6.09,1.47,1.3.27,2.87,0,3.9.67,1.25.79,2.79-.17,3.79,1,1.66-.36,3.17.6,4.79.58,1,0,1.51.58,1,1.27a4,4,0,0,0-.52,2.31c-.17,3.19-.19,6.4-.64,9.54-.18,1.23-.4,2.45-.49,3.69s-.43,2.64-.52,4S113.3,134.85,113,136.05Zm28.11,28.66a4.77,4.77,0,0,1,.45,2.89c.05,6.33,0,12.67,0,19.28H123.22c-3.29-1-6.71-.3-10.13-.63v-35a2.34,2.34,0,0,1,2.2.15,1.19,1.19,0,0,0,.73.23c3-.41,5.79.92,8.71.56,2.58-.32,5,.68,7.59.59s5,0,7.54,0c1.21,0,1.65.43,1.67,1.61a67.67,67.67,0,0,1-.06,7C141.37,162.48,140.5,163.77,141.06,164.71ZM90.63,109.92c-.77,2.33-1.08,4.77-1.67,7.14-.38,1.52-.69,3.06-1.14,4.56s-.48,3.08-1,4.6a24,24,0,0,0-.64,4.78c-.13.95-.35,1.9-.55,2.84s.42,2-.43,2.91c-.24.26-.09.88-.13,1.33-.18,2.07-.36,4.14-.57,6.2-.08.83-1,1.56-1.77,1.18-2-1-4.34-.65-6.15-2-3-.34-5.57-2-8.51-2.41-.83-.14-5.08-1.72-5.71-2.36s-1.39-.28-2.07-.45c-1.16-.29-1.59-.83-1.51-1.79.62-2.15,1.14-4.35,1.88-6.48,1.23-3.59,2.75-7.07,3.74-10.75a20.1,20.1,0,0,1,1.38-3.34c2.29-4.74,4.33-9.59,6.84-14.23.49-.91.92-1.06,1.57-.81,1.69.65,3.28,1.59,5,2.11,3.06.94,6,2.33,9.15,2.93.92.18,2.25.19,2.79,1.27S90.92,109,90.63,109.92Zm-19.25-9.18c-1.24,2.46-2.35,5-3.59,7.45a52.18,52.18,0,0,0-4,9.8c-.4,1.5-1.72,2.65-1.7,4.33-1.46,1.65-1.31,3.91-2.12,5.83a16.57,16.57,0,0,0-1.8,6.82c0,1.07-.8,1.63-2,1.55a13.06,13.06,0,0,1-1.63-.6c-2.95-1.45-5.87-2.93-8.8-4.42a8.09,8.09,0,0,0-2.61-1.15c-.92-.13-1.38-1.34-2.59-1.21-.39,0-.63-.53-.3-1.36,1.13-2.9,2.86-5.56,3.62-8.56s2.44-5.51,3.28-8.45c.71-2.53,2.23-4.85,3.52-7.19,1.51-2.73,3.14-5.41,4.78-8.08.83-1.35,1.79-2.62,2.72-3.91.3-.42.66-.48,1.15-.13q3.66,2.61,7.37,5.14c1,.69,2.09,1.26,3.12,1.91a17.87,17.87,0,0,1,1.51,1.07C71.71,99.92,71.63,100.24,71.38,100.74ZM84,166.46c.87-4.11.29-8.24.52-12.36.06-.95.42-1.89.52-2.84s0-1.87,0-2.8.6-1.06,1.82-.91c1.49.19,2.92.67,4.44.82a23.42,23.42,0,0,1,5.18.93,24.82,24.82,0,0,0,4.76.67c1.23.17,2.45.44,3.68.54s2.56-.31,3.6.11a13,13,0,0,0,3.36.53c0,2.51.06,4.84,0,7.16a9.08,9.08,0,0,1-.58,3.11c-.34.86.85,1.41.13,2.41-.44.61-.08,1.8-.08,2.73s0,1.87,0,2.8c0,.69-.33,1.49.44,2.06.1.07.13.34.1.5-.23,1.34-.95,2.51-.13,4.08.57,1.1.13,2.73.14,4.12v4.47a2.61,2.61,0,0,1,0,.28c-.09,1-1,1.9-1.8,1.4-1.15-.75-2.3-.35-3.44-.51-1.32-.18-2.63-.44-4-.53s-2.93.34-4.15-.12c-1.56-.57-3.05-.29-4.56-.48-1-.11-1.89-.43-2.84-.52s-2.07.1-3.07-.06a12.74,12.74,0,0,0-2.85-.56c-.87,0-1.29-.59-1.29-1.67,0-3.45,0-6.89,0-10.34A24.7,24.7,0,0,1,84,166.46Zm57.19,48.2c-.33.79-.6,1.61-1,2.37a2.26,2.26,0,0,1-2.24.6.8.8,0,0,1-.29-.67,18,18,0,0,1,1.16-3.43c.18-.33,1.15-.39,1.73-.32C141.42,213.31,140.71,214.14,141.17,214.66ZM213.92,101.8c2.32,3.77,3.8,7.94,5.66,11.93A97,97,0,0,1,223.19,124c.71,2.14,1.4,4.28,2,6.45.49,1.85.53,3.82,1.4,5.09,0,1,0,1.32-.73,1.66A96.86,96.86,0,0,1,216,141c-2.87,1-5.82,1.65-8.68,2.68a18.77,18.77,0,0,1-2.8.66c-1.3.24-1.89-.31-2-1.55-.08-1-.21-2-.32-2.94s0-2.34-.48-3.14.28-2.14-.87-2.73c0-2.07-.89-4-1-6-.13-1.83-1.2-3.34-1.21-5.12-.86-.6-.22-1.69-.63-2.24a3.72,3.72,0,0,1-.51-2.05c0-.42-.31-.81-.4-1.23-.7-3-1.9-5.77-2.41-8.8a8.84,8.84,0,0,0-1.23-3.65c-.79-1.13-.18-1.56.52-1.91,1.7-.83,3.49-1.48,5.21-2.27,3.36-1.56,6.74-3.09,10-4.78a1,1,0,0,1,1.55.46C211.84,98.19,212.83,100,213.92,101.8Zm-2.37-6.36c1.21-1.93,3.35-2.44,5-3.58,2.23-1.52,4.58-2.88,6.8-4.44.15-.1.25-.28.4-.39,1.5-1,2.3-.9,3.28.52.14.21.06.59.22.74,2.67,2.45,4.18,5.74,6.35,8.55a53.59,53.59,0,0,1,5,7.46c1.3,2.44,2.94,4.7,4.07,7.24s2.25,4.85,3.48,7.22a17.24,17.24,0,0,1,1.28,3.11c.54,1.88.38,1.63-.89,3-1.64,1.75-3.74,2.81-5.61,4.15a49.64,49.64,0,0,1-8.06,4.76c-1.26.58-2.4,1.4-3.63,2-1,.5-1.23.32-1.58-.83-.83-2.74-1.37-5.58-2.3-8.28-.85-2.45-1.49-5-2.37-7.39-1.17-3.24-2.49-6.42-3.93-9.55-.76-1.64-1.32-3.37-2-5-.25-.55-.83-.95-1.08-1.51A65,65,0,0,0,211.55,95.44ZM248.9,122a136.07,136.07,0,0,0-6.1-12.57c-2.15-4.19-4.64-8.16-7.14-12.14-2-3.21-4.67-6-6.56-9.3-.57-1-1.67-1.58-2.22-2.72-.39-.8.14-.47.36-.73,2.41-2.81,5.33-5.15,7.37-8.28.6-.92,1.47-1,2.27-.08,2.74,3,6,5.44,8.37,8.82a15.34,15.34,0,0,0,2.12,2.15c3.07,3,5.41,6.52,8,9.84,2.16,2.75,3.91,5.82,5.83,8.76.47.73.89,1.49,1.34,2.24.13.22.27.44.41.66a27.09,27.09,0,0,1-2.11,2.81c-2.06,2.16-4.36,4.11-6.26,6.39-1.39,1.66-3.08,3-4.57,4.46C249.58,122.74,249.22,122.78,248.9,122ZM193.53,47.81a43.89,43.89,0,0,1,6.93,3.53c2,1.44,4.44,2.32,6.62,3.55,2.95,1.68,5.81,3.5,8.75,5.19a76.29,76.29,0,0,1,6.6,4.31c2.08,1.51,4.15,3,6.2,4.6.93.7,1.82,1.46,2.74,2.17s1.41,2,2.72,2.2c.16,0,.24.43.48.88a16.74,16.74,0,0,1-1.5,2.33c-1.11,1.25-2.39,2.36-3.53,3.59-.72.78-1.72,1.33-2,2.51-.1.36-.92.47-1.27.82s-.65.43-1,0a55.8,55.8,0,0,1-3.64-4.37,8.06,8.06,0,0,0-3-3,1.55,1.55,0,0,1-.62-.51,13.87,13.87,0,0,0-4.49-4.56c-1.74-1.14-2.72-3.22-4.74-4.09-.12-1.18-1.38-1.2-2-1.91a4.91,4.91,0,0,0-2.27-1.89,7.18,7.18,0,0,1-2.29-1.78c-2.62-2.34-5.66-4.11-8.29-6.42-.91-.8-2.07-1.31-3.06-2-.53-.37-.9-.75-.28-1.56a29.33,29.33,0,0,0,1.64-3.21C192.44,47.72,192.8,47.46,193.53,47.81Zm.13,8.6c2.7,2.06,5.29,4.27,8,6.28a56.34,56.34,0,0,1,7.81,6.73c2.1.79,2.95,3.19,5.07,4,1.6,3.15,5,4.76,6.77,7.79.83,1.4,2.31,2.4,3.65,3.74-1.46,1-2.85,2.08-4.33,3-2.81,1.74-5.36,3.9-8.45,5.21a4.91,4.91,0,0,1-1.8.35c-.2,0-.61-.25-.6-.35.23-1.74-1.91-2.12-2.07-3.62a124.8,124.8,0,0,0-8.44-10.76c-2.3-2.49-4.15-5.38-6.38-7.94-2.66-3-5.5-5.92-8.27-8.87-.42-.45-.87-.88-1.32-1.34,2.12-2.39,4.1-4.63,6.19-7C190.94,54.53,192.35,55.4,193.66,56.41ZM188.8,68.76c.66,1.26,2.07,2.11,3.08,3.2,1.67,1.8,3.32,3.6,4.89,5.47A13.39,13.39,0,0,1,199,80.35c.55,1.26,1.68,1.86,2.38,2.91s1.82,2,2.62,3.12c1.05,1.4,2,2.88,2.93,4.37a9.93,9.93,0,0,0,1.81,2.61,1.93,1.93,0,0,1,.42,1.2c.07.74-.61.42-.94.62-1.19.71-2.6,1-3.75,1.71-3.36,2-7.15,3-10.57,4.84a1.25,1.25,0,0,1-1,.1,1.94,1.94,0,0,1-.65-1c-.52-1.55-.92-3.15-1.51-4.68-.81-2.08-1.85-4.07-2.62-6.17-1.88-5.12-4.72-9.77-7-14.7a53.3,53.3,0,0,0-3.7-6c-.23-.37-.47-.74-.67-1.12s-.53-.82-.46-1.18.5-.7.84-1c1.7-1.48,3.42-2.94,5.33-4.57C184.77,63.88,187.26,65.86,188.8,68.76Zm-3.5,17.9a76.19,76.19,0,0,1,4.36,11c.35,1.24.94,2.4,1.39,3.61s.42,1.18-.92,1.67c-2.27.85-4.62,1.48-6.87,2.33-1.72.64-3.59.59-5.24,1.52-.86.5-2.34.1-3,.7-.94.84-2.24-.09-3,1-.16.22-.88,0-1.35,0A1.49,1.49,0,0,1,169,107a8.22,8.22,0,0,0-.72-4.2c-.59-1.35-.49-2.74-.95-4.08a70,70,0,0,1-2.17-8.31c-.86-4-2.33-7.86-3-11.93-.21-1.36-1.15-2.54-1.11-4,0-.75.29-.86,1-1.21,1.79-.92,3.85-1,5.58-2.1s3.57-1.42,5-2.83a1.87,1.87,0,0,1,.94-.41c.64-.15,1.49-.71,1.55.62C179.43,74.05,182.37,80.36,185.3,86.66Zm-23.68-4.9c.47,1.68.81,3.44,1.29,5.08s.94,3.15,1.43,4.69.64,3,1.14,4.56a18.5,18.5,0,0,1,1.12,4.54c.12,2.36,1.42,4.43,1.25,6.8,0,.28.46.58.5.89a1,1,0,0,1-.44.79,5.31,5.31,0,0,1-1.71.57,44.81,44.81,0,0,1-6.2.51c-1.32,0-2.42.61-3.68.65s-2.31-.38-3.45.47c-.47.36-1.44.06-2.19.06h-8.51V76.65c3,.46,5.79-.75,8.74-.58,1.35.08,2.73-.54,4.1-.82s2.76-.54,4.15-.79c.54-.1.76.1.86.71A64.54,64.54,0,0,0,161.62,81.76Zm-4.23-8a23.24,23.24,0,0,1-4.5.63c-1.24.12-2.35.74-3.68.64-1.11-.1-2.4-.57-3.42.43-.8-1.18-1.52.17-2.3.09s-1.24,0-1.73-.6.2-.94.26-1.37a16.19,16.19,0,0,0,.06-3.34,1.94,1.94,0,0,1,1-2c1.22-.74,1.75-3.41.95-4.41a1.92,1.92,0,0,0-1.14-.57,1.45,1.45,0,0,1-1.37-1.66c0-3.35,0-6.7,0-10.05a2.86,2.86,0,0,1,.51-1.47c1.16-2.12,2.19-4.3,3.17-6.5a3.19,3.19,0,0,1,1.35-1.37.92.92,0,0,1,1.51.5c.05,1.39,1.17,2,1.81,2.92a15.31,15.31,0,0,1,1.7,3.47c1.85,5.29,3.75,10.56,5.36,15.92A54.84,54.84,0,0,1,159,73C159.17,73.61,157.87,73.67,157.39,73.81Zm-15.86-9.14c.07-.06.14-.19.19-.18a1.81,1.81,0,0,1,.37.18l-.19.2Zm-1.1,77.74c.22.8-.38,1.34-.55,2-.29,1.13-1.2,0-1.41.46-.37.1-.6.09-.7.2-.5.57-.86.34-.67-.26a18.9,18.9,0,0,1,1-3.49c.27-.51.28-1,1-.89a1.36,1.36,0,0,1,1.31,1.14C140.47,141.85,140.36,142.15,140.43,142.41Zm-.68-40.73c-.07.16-.33.25-.37.4-.17.58.13,1.39-.62,1.69a17,17,0,0,1-2.5.52c.34-1.53.55-2.57.81-3.59.11-.45,1.29-.82,1.86-.48S140.14,100.84,139.75,101.68Zm-20.1-23.81a11.19,11.19,0,0,0-.51,2.87c-.1,1-.4,1.88-.53,2.84-.2,1.5-.75,2.94-.6,4.51.14,1.42-.92,2.75-.53,4.23-1.19,1.15-.3,2.74-.86,4.11s-.17,2.89-.26,4.36c-.08,1.15-.77,2.16-.59,3.4a5.79,5.79,0,0,1-.47,3.42c-.32.67,0,1.62,0,2.74-7.29-1.26-14.42-2.62-21.89-4.35a18.62,18.62,0,0,1,.82-4A93.49,93.49,0,0,0,98,91.58a38.36,38.36,0,0,1,1.89-4.23c2.06-4.73,3.94-9.54,6.42-14.08.51-.92,1.11-1.78,1.68-2.66.86-1.34,1.47-1.64,2.79-.86a47.57,47.57,0,0,0,6.33,2.9c1,.4,2,.61,3.26,1A19.81,19.81,0,0,1,119.65,77.87Zm-13-8c-1.07,1.89-1.92,3.88-3.15,5.7s-1.84,4.07-2.77,6.11-1.93,4.23-2.71,6.41c-1.43,4-3.25,7.82-4.12,12-.34,1.58-1.4,3-1.67,4.62,0,.22-.44.51-.7.54A13.21,13.21,0,0,1,85.94,104c-1.93-.71-3.91-1.43-5.85-2-1.69-.5-3-1.92-4.85-1.87-.32,0-.64-.63-1-.93-.55-.47-.4-.8,0-1.38,1.39-2.2,2.6-4.51,4-6.71,1-1.49,2.07-2.91,3-4.37,1-1.61,2.13-3.2,3.23-4.78a121.84,121.84,0,0,1,7.28-10.14c2.06-2.4,3.9-5,6.18-7.2A24,24,0,0,0,100,61.75c1.61,1.6,2.88,2.94,4.23,4.2a5.36,5.36,0,0,0,1.69,1.3C107.66,68,107.67,68.12,106.7,69.83ZM98.82,61.5c-2,.5-2.21,2.76-3.71,3.74,0,1.11-1,1.44-1.6,2.13-1,1.2-2,2.31-2.94,3.54q-3,4-5.93,8.16c-.85,1.21-1.6,2.5-2.39,3.75a5,5,0,0,1-.39.68,49.71,49.71,0,0,0-6.67,10.09c-.74,1.35-2,2.49-2.06,4.19,0,.23-.54,1.12-1.14.27-1.34.25-2.09-.9-3-1.45-2-1.2-4.23-2.22-5.9-4a13.36,13.36,0,0,0-2.83-1.87c-.84-.53-1-1-.35-1.84.48-.66,1.21-1.16,1.64-1.84a37.67,37.67,0,0,1,6.34-8,10.33,10.33,0,0,0,2-2.54c.26-.47.36-.77,1-1s.89-1.09,1.39-1.59c1.67-1.69,3.36-3.35,5.06-5a5.45,5.45,0,0,1,1.26-1c.86-.46.78-1.68,1.91-2a7.48,7.48,0,0,0,2.35-1.72,24.91,24.91,0,0,0,1.79-1.77,23.68,23.68,0,0,1,5.25-4.18c.7-.4,1.17-1.19,1.8-1.73a19.65,19.65,0,0,0,1.72-1.22c.73-.74,1.21-.26,1.55.27a26.15,26.15,0,0,0,3.76,4.87,5.23,5.23,0,0,1,.44.58C99,61.2,98.92,61.47,98.82,61.5Zm-5.4-8.44c.17,1.23-1.19.77-1.7,1.45a15.39,15.39,0,0,1-4.79,3.84,9.55,9.55,0,0,0-1.79,1.75,29.79,29.79,0,0,1-5.46,4.36,9,9,0,0,0-1.39,1.37c-2.31,2.31-4.68,4.55-6.9,6.94-2,2.11-3.65,4.5-5.63,6.55-2.84,2.94-4.85,6.41-7.2,9.65-3.66-3.28-7.9-5.91-10.39-10.41,2.5-2.49,5-5,7.65-7.58.56-.54,1.3-.91,1.92-1.4,1.77-1.37,3.53-2.74,5.27-4.15a19,19,0,0,1,4.79-3.28c.08,0,.2,0,.25-.07,3-3.16,7.25-4.35,10.47-7.11,2.72-1,5-2.86,7.58-4,1.36-.57,2.41-1.66,3.93-2s1.56-.45,2.29.89a5.87,5.87,0,0,1,.54.89A15.17,15.17,0,0,1,93.42,53.06Zm-2.5-6a13.71,13.71,0,0,1-2,1.14c-3.69,1.52-7,3.79-10.51,5.65s-6.51,4.09-9.8,6.06c-2.75,1.64-5.16,3.73-7.77,5.55-.64.45-1.28.89-1.9,1.36a9.43,9.43,0,0,1-2.12,1.64c-.8.34-1.31,1.3-2,1.9s-1.29,1.83-2.52,2c-.12,1.18-1.15,1.43-1.93,2a2.76,2.76,0,0,0-1,1.23A2.09,2.09,0,0,1,48,76.74c-.65.32-1.1.45-1.44-.22-1.08-2.18-3.12-3.81-3.57-6.35a6,6,0,0,1-2-3.09c-.38-.9-.15-1.28.78-1.77a37.43,37.43,0,0,0,4.12-2.91C49.2,60.06,52.6,58,56.09,55.92,58,54.79,60,53.65,62,52.54a72.36,72.36,0,0,1,6.5-3.18c4.58-2,9.07-4.18,13.84-5.76,2.19-.73,4.42-1.48,6.55-2.42.72-.31.93.19,1,.37a15.65,15.65,0,0,0,1.5,4.62C91.15,46.57,91.1,46.9,90.92,47ZM47.1,79.87c.55.54,1.24,1,1.53,1.58.81,1.71,2.57,2.5,3.64,4s2.66,2.43,4,3.61c.71.6,1,1.05.27,2s-1,1.83-1.67,2.66c-.86,1-.95,2.52-2.21,3.26-1.18,3-3.42,5.42-4.61,8.44s-2.5,5.86-3.9,8.72a68.86,68.86,0,0,0-3.9,9.85c-.34,1.07-.73,2.12-1.12,3.17-.18.49-1.08.6-1.61.19-.92-.71-1.8-1.48-2.74-2.16-2-1.46-3.89-3.06-6-4.41a27.59,27.59,0,0,1-3.6-3.5c-.69-.67-1.45-1.27-2.31-2,1.54-2.51,2.19-5.7,4.43-8,2-4.76,5.21-8.85,8-13.18,1.37-2.16,3.06-4.17,4.59-6.25a66.34,66.34,0,0,1,6.42-7.37A8.31,8.31,0,0,1,47.1,79.87ZM59.36,208.19a38.22,38.22,0,0,1-.62-5.06c-.1-.68-.39-1.33-.54-2s.29-1.48-.41-2.08a.62.62,0,0,1-.15-.48c.39-2.49-.56-4.86-.61-7.32,0-2.15-.41-4.3-.63-6.46-.07-1.33.42-2.69-.4-4-.45-.71,0-1.25.86-1.17a12,12,0,0,1,1.5.42,45.45,45.45,0,0,0,5.36,1.19,36.74,36.74,0,0,1,4.08,1c.43.1.88.13,1.32.19,1,.12,1.92-.21,2.88.5.65.48,1.72-.27,2.6.46s1.89-.16,2.85.56c.54.41,1.6.1,2.43.17a6.94,6.94,0,0,1,1.82.31c1.08.38,1,.43,1.12,1.43.13,1.33.43,2.64.52,4s-.26,2.69.09,3.89c.51,1.71.17,3.46.57,5.08s.25,3.42.55,5.08a28,28,0,0,1,.52,4,10.62,10.62,0,0,0,.6,3.93c.65,1.44.25,3,.85,4.4a21.26,21.26,0,0,1,.77,4.43c.09.52,1.17,1,.17,1.49-.33.17-1-.26-1.47-.39a3,3,0,0,0-.79-.11c-3.26.14-6.32-1.35-9.59-1.13-1-.75-2.24-.58-3.4-.54s-2-.56-3.11-.67c-2-.2-3.91-1-6-1-.82,0-2.05-1.42-2.13-2.29A44.37,44.37,0,0,0,59.36,208.19Zm7.72,11.95c1.28.12,2.54.78,3.82.82,3.06.09,5.95,1.38,9,1.16,1.23.84,2.74.2,3.93.65a12.35,12.35,0,0,0,3.63.48c1.32,1.24.47,3.14,1.47,4.46a28.46,28.46,0,0,0,2.16,8.6c-.32,2.3,1.2,4.21,1.29,6.49.07,1.74,1.06,3.44,1.57,5.18,1,3.48,2,7,3,10.47.2.68-.61,1.49-1.07,1.07-.77-.71-1.57-.35-2.34-.48a42.49,42.49,0,0,1-5.45-1c-1.25-.38-2.6-.18-3.94-.58-2.59-.76-5.42-.56-7.94-1.76-2.33.57-2.62-1-3.26-2.7-1.27-3.28-2.79-6.5-4-9.8-1.34-3.72-2.3-7.61-3.65-11.35-.65-1.81-1-3.69-1.5-5.51A20.31,20.31,0,0,1,62.64,221c0-.44-.4-.88-.7-1.51C63.89,219.05,65.43,220,67.08,220.14ZM96.5,252.32c-.67-2.14-.75-4.47-2-6.45-.57-4.08-2.15-7.91-2.87-12-.27-1.48-1-3-1.27-4.48-.39-2-1.19-3.92-.78-6.28.4.32.6.63.82.64a43.24,43.24,0,0,1,4.53.49c3.23.47,6.58.23,9.8.72a72.24,72.24,0,0,0,7.89.52,14.9,14.9,0,0,1,2.9.71c.24,1.09.55,2.36.78,3.65s.39,2.64.57,4,.38,2.64.56,4a35.5,35.5,0,0,1,.53,4,37.18,37.18,0,0,0,.72,4.22c.19,1.32.26,2.66.47,4s.85,2.47,1,3.74a18.22,18.22,0,0,0,.54,4,20.78,20.78,0,0,1,.71,4.16c-1.15-.14-2.14.39-3.19-.47-.39-.32-1.26-.07-1.9-.07h-5.87c-1.59-1.4-3.75.14-5.45-1.07-.49-.35-1.46,0-2.19-.07q-2-.19-4-.57c-.2,0-.36-.5-.46-.8C97.8,256.63,97.17,254.47,96.5,252.32Zm46.12-66.27c0-1.62,0-2.35,1.36-2.51.46-.06,1,.16,1.38,0,.91-.53,1.38,1.22,2.48.28.56-.47,1.75-.25,2.66-.24a1.45,1.45,0,0,0,1.67-1.35c.19-1,1-1.94.25-3.25-1.36,2.54-3.18,4.28-6.2,4-.74-1.49.51-2.58.4-4.36.54.67.74,1,1,1.23.64.62.83.54,1.27-.37a3.32,3.32,0,0,0,.31-2.54c-.65.08-.17,1.22-1.15,1.07-.68-.1-1.07-.21-.91-.94s.35-1.34.55-2c.05-.16.19-.42.28-.42a10.8,10.8,0,0,1,2.42.22c.29.08.53.69.63,1.09a5.51,5.51,0,0,1,0,1.35c1.61-.24.88-1.77,1.62-2.53.54-.54-.06-1.18-1-1.28-.74-.07-1.65-.56-2.17-.29-.93.5-1.8.2-2.68.28a8.84,8.84,0,0,0-2.46.34,3.89,3.89,0,0,0,.62.23c.9.2,1.27.65,1,1.37-.14.4-.43.76-.54,1.17-.4,1.51-.73,3-1.14,4.55a16.06,16.06,0,0,1-.75,1.84c-1.14-.55-.91-1.54-.91-2.44q0-12.57,0-25.14v-2.6c4.22,0,8.3.07,12.38,0,2.9-.06,5.77-.85,8.7-.54,1.9-1,3.94-.41,5.92-.55a7.24,7.24,0,0,0,2.59-.49,1.53,1.53,0,0,1,2.29,1.44q.3,6,.56,12.06a14.16,14.16,0,0,0,0,3.06c.86,3.17.38,6.37.51,9.56,0,.28-.11.7,0,.81,1,.82,0,1.86.27,2.52a7.72,7.72,0,0,1,.23,3,4.37,4.37,0,0,1-.52,1.72,1.57,1.57,0,0,1-1.69,1.05c-1.86-.06-3.72,0-5.58,0a10.49,10.49,0,0,0-2.7.23c-.9.26-1.57-.55-2.43-.24-3.12,1.1-6.36.44-9.54.54s-6.52,0-9.78,0C143.37,186.87,142.63,187.21,142.62,186.05Zm.64,8a11.65,11.65,0,0,1,0-2.51,8.13,8.13,0,0,0-.08-1.64c-.34-1.61-.22-1.85,1.27-1.89,1.21,0,2.42,0,3.63,0,2.8,0,5.6.12,8.38,0,2.63-.14,5.22.2,7.9-.4s5.56-.13,8.35-.13h3c0,3.42,0,6.58,0,9.75,0,1.9-.8,3.69-.6,5.64a17,17,0,0,1-.06,5.56,25.76,25.76,0,0,0-.46,5.37c0,1.08-.77,2-.61,3.13a3.61,3.61,0,0,1-.46,2.88c-.31.41,0,1.27-.07,1.91a10.66,10.66,0,0,1-.6,2.82,2.26,2.26,0,0,1-1.44.94,7.92,7.92,0,0,1-2,0c-4.1,0-8.26-.44-12.27.13-3.78.53-7.5.18-11.24.42a6,6,0,0,1-1.4,0,1.31,1.31,0,0,1-1.29-1.42c0-.56,0-1.12,0-1.68v-24.3c0-.84.33-1.94-.08-2.45C142.43,195.27,143.43,194.78,143.26,194.05Zm24.16,65.66c.55-1.93.92-3.9,1.55-5.8.74-2.25.35-4.76,1.63-6.87-.08-3.15,1.2-6,1.68-9.09.28-1.77.05-3.7.67-5.32s.09-3.53,1-5.2c.43-.81.65-1.43,1.65-1.4a7.15,7.15,0,0,0,2.22,0,5.15,5.15,0,0,1,1.79,0c1.21.05,2.38-.57,3.69-.52,1.12,0,2.35.44,3.43-.48.27-.23.91-.09,1.36,0,2.59.41,5-.78,7.61-.59.22,0,.46-.21.71-.27s.7-.22.94-.1a1.24,1.24,0,0,1,.68.8,4,4,0,0,1-.09,2.17,16.75,16.75,0,0,0-1.4,5.82c-.28,2-1.12,3.89-1.44,5.9a48.56,48.56,0,0,1-1.38,5.26c-.63,2.16-1.31,4.33-1.84,6.53-.59,2.43-1.45,4.8-2.21,7.19-.13.41-.49.77-.52,1.17,0,.58-.2.77-.8.81-2.35.14-4.7.32-7,.56-.68.06-1.33.43-2,.52a18.42,18.42,0,0,1-2.23,0c-2.83,0-5.58.9-8.44.58C167.17,261.14,167,261,167.42,259.71Zm23.38-2.06c.9-1.71,1-3.65,1.87-5.38a27.38,27.38,0,0,0,1.45-5.26c1-3.78,1.72-7.66,2.91-11.36.89-2.76.7-5.74,2.1-8.33.12-.22,0-.56,0-.83.13-.78-.44-1.81.48-2.28a9.59,9.59,0,0,1,3-.94c2-.28,4.09,0,5.86-.71,1.55-.61,3.13-.13,4.66-.89,1.17-.58,2.77-.13,4.21-.57a13.93,13.93,0,0,1,2.81-.61,8,8,0,0,0,2.58-.57c.78-.34,1.15.05,1,1a10.15,10.15,0,0,1-.58,3.1c-1.34,2.86-1.63,6-2.77,8.91s-1.63,5.84-2.86,8.58c-.6,1.34-1,2.75-1.58,4.09s-.89,2.61-1.4,3.89-1.17,2.68-1.75,4a5.79,5.79,0,0,0-.23.74c-.47,1.42-1.11,2-2.45,2a9,9,0,0,0-2.84.58c-.94.22-1.86-.07-2.89.47s-2.39.23-3.65.58a42.14,42.14,0,0,1-5.88.66,21.39,21.39,0,0,0-2.5.54C190.82,259.05,190.32,258.57,190.8,257.65Zm32.82-38.93c-1.38.32-3,.07-4.18.7-1.34.72-2.93-.09-4.05,1-1.85-.4-3.55.56-5.36.59a8,8,0,0,0-2.28.54c-2.39.81-4.85.47-7.54.58.22-1.24-.28-2.38.43-3.51s-.15-2.25.55-3.41.3-2.57.65-3.9c.57-2.24.45-4.66.68-7,.11-1.24.4-2.45.53-3.69s-.26-2.52.55-3.69c.56-.8-.95-1.73,0-2.6-.07-2.64.82-5.19.6-7.87-.18-2.25.08-2.35,2.25-2.4A33,33,0,0,0,213,183c1.45-.34,3-.12,4.52-.57,2.51-.74,5.19-.67,7.7-1.67,1.35-.54,3-.45,4.68-.68,0,1.35,0,2.37,0,3.39,0,.78-.8,1.55,0,2.33-1,1.31-.43,2.82-.55,4.24a7.52,7.52,0,0,1-.52,3.15c-.43.83.39,2-.53,2.86-.15.13-.06.52-.08.79,0,1.1.2,2.33-.21,3.27-.49,1.11.16,2.44-.43,3.14-.81.95.11,2.29-1,3,.25,2.37-.58,4.56-1.1,6.81-.33,1.47-.31,3-.63,4.5A1.9,1.9,0,0,1,223.62,218.72ZM263,106.11c-2.12-3-3.79-6.37-6.31-9.11-1-2.82-3.93-4.35-4.95-7.17-.06-.16-.26-.26-.38-.4-2-2.23-4.07-4.47-6.13-6.68A21.14,21.14,0,0,0,242.4,80c-.93-.68-1.11-1.87-2.27-2.45s-1.86-1.78-2.81-2.68a1.55,1.55,0,0,1-.27-2.34,49,49,0,0,0,3.8-7.93c2.42,2,4.77,3.3,6.63,5.28.6.63,1.63.93,2.06,1.63s1.51.36,1.72,1.48c.13.73,1.08,1.37,2,1.64.28.08.47.52.68.81.37.49.63,1.21,1.12,1.45,1.54.76,2.51,2.1,3.7,3.21a26,26,0,0,0,3.2,3.1c1.24.8,1.84,2.07,2.85,3a62.76,62.76,0,0,1,4.95,5.48A6.15,6.15,0,0,1,271,94a2.25,2.25,0,0,1-.25,1.82c-.77.82-.8,2-1.51,2.72s-.38,2.22-1.52,2.75c-.17,2-2.16,2.92-2.63,4.79C264.76,107.18,263.65,107.1,263,106.11ZM242.75,52.34c-1.09,1.21-.08,2.75-.61,3.94s-.61,2.54-1,3.76c-.11.33-.17.68-.3,1-.51,1.27-1,1.43-2.1.67-1.8-1.24-3.6-2.52-5.43-3.74-1.52-1-3.08-2-4.63-3-.37-.23-.94-.3-1.12-.61-.82-1.38-2.75-1-3.53-2.32-1.44.44-2-1.34-3.41-1.32-1,0-2-1-3-1.46-2.3-1-4.72-1.78-6.87-2.94-2.39-1.28-4.94-2.07-7.39-3.09-2.28-1-4.74-1.58-7.11-2.37-1.52-.5-1.53-.49-1.56-2,0-.47,0-.93,0-1.4.06-1.26.62-1.74,1.84-1.64,2.79.67,5.49,1.37,8.22,1.95s5.32,1.7,8.11,2c.19,0,.42-.06.56,0,2.59,1.48,5.58,1.79,8.32,2.82s5.55,1.9,8.34,2.81a50.83,50.83,0,0,1,5.6,2.63c1.72.81,3.58,1.23,5.22,2.27.62.39,1.11.89,1.67,1.31C242.73,51.75,242.85,52.24,242.75,52.34ZM227,29.36a73.28,73.28,0,0,0,6.5,5.26c2.33,1.49,3.67,4.06,6.22,5.21.49,1.47,1.85,2.21,2.75,3.34a1.69,1.69,0,0,1,.26,1c0,1.66,0,3.32,0,5.25-2.49-.51-4.46-1.81-6.62-2.59s-4.44-1.88-6.7-2.72-4.48-1.34-6.62-2.23-4.51-1.27-6.66-2.14a68.47,68.47,0,0,0-6.69-2c-2.33-.66-4.69-1.37-7.09-1.84s-4.67-.88-7.19-1.35a13.23,13.23,0,0,0-.73-6.25c-.35-1,.23-1.15.6-1.3a4.51,4.51,0,0,1,1.65-.05c4.76,0,9.51,0,14.26,0a40.58,40.58,0,0,1,4.24.53c1.33.15,2.7-.29,4,.51.48.3,1.29,0,1.93.06,1.51.15,3,.32,4.52.58A3.25,3.25,0,0,1,227,29.36Zm-25.55-15c1.12.74,2.64.9,3.74,1.67a37,37,0,0,0,3.65,2c5.08,2.83,10.15,5.67,15,8.8a2.46,2.46,0,0,1,.4.39c-2.68-.39-5.22-.61-7.76-.91-7.55-.89-15.1-.25-22.65-.47-.47,0-.71-.05-.94-.64-1.46-3.72-4.33-6.36-7.14-9,.26-.85.86-1,1.63-1a16.59,16.59,0,0,0,4.6-1c.08,0,.16-.11.24-.1a22.62,22.62,0,0,0,5.62-.54A5,5,0,0,1,201.48,14.34ZM177.76,5.72c1.61.51,3.37.34,4.85,1.09,2,1,4.23,1.49,6.31,2.31s3.91,1.86,6.08,2.2a3.08,3.08,0,0,1,1.15.59.49.49,0,0,1,.18.46,1.16,1.16,0,0,1-.44.54c-.13.09-.36,0-.54,0-1.22,0-2.73-.45-3.56.11-1,.67-2,.27-3,.86s-2.43.14-3.63.89a4.73,4.73,0,0,1-1.37-.81c-1.63-2-4-2.89-6.05-4.32a16.91,16.91,0,0,0-1.55-1c-.77-.44-1.83-.47-2.16-1.53C175.18,6.49,176.35,5.28,177.76,5.72Zm-18-3.92c.5.13,1,.36,1.46.49.94.25,1.94-.33,2.9.43.74.59,1.89-.2,2.82.57.72.59,1.82,0,2.83.53,1.18.61,2.74.5,4.14.73.22,0,.55.2.59.37a.76.76,0,0,1-.23.69,6.64,6.64,0,0,1-2,1.11,3,3,0,0,1-1.69-.52c-2.72-1.36-5.72-1.85-8.56-2.83a14.25,14.25,0,0,0-4.22-.52A1.49,1.49,0,0,1,159.76,1.8Zm-3.55.06.12-.12.26.33c-.06.05-.13.15-.16.16h0a2.6,2.6,0,0,1-.33-.25l.1-.1Zm-1.12,0a1.49,1.49,0,0,1,.43-.17l.37-.46c.07.15.13.31.19.46h-.56V2h0l-.33.26C155.15,2.13,155.06,1.94,155.09,1.91Zm-1.48-.68c0,.06.15.13.16.16h0a2.13,2.13,0,0,1-.25.34l-.13-.13,0,0-.09-.09Zm-1.06.09a1.42,1.42,0,0,1,.17.42h.56l-.37.47c-.07-.16-.13-.31-.19-.47h-.25l-.26-.33C152.33,1.38,152.53,1.28,152.55,1.32Zm-7.69.42a9.25,9.25,0,0,1,3.7.51c1,.44,2.22-.17,3.43.51.9.5,2.31.1,3.94.1-.74,1.15-1.22,2-1.75,2.73a29.23,29.23,0,0,0-2.51,3.72,19.85,19.85,0,0,0-1.52,2.7,6.39,6.39,0,0,1-1.68,2.68,2.57,2.57,0,0,0-.74,1.34c-.06,1.25-.84,2.08-1.38,3.09s-1,1.8-1.58,2.7a20.59,20.59,0,0,0-2.7,5.58A8,8,0,0,1,141,29.05V21.86c0-4.19,0-8.38,0-12.57,0-1-.41-2,.52-2.87a1.07,1.07,0,0,0,0-1c-1-1-.24-2.29-.63-3.63Zm-2.24,26.43c2.35-4,5-7.73,6.77-12A29.51,29.51,0,0,1,151,13.21c.58-1.06,1.06-2.18,1.7-3.21a10.83,10.83,0,0,0,1.71-2.93c.11-.47.74-.81,1.14-1.2a11.56,11.56,0,0,0,1-1c.33-.42-.43-1.45.7-1.42.49,0,.95.4,1.45.52,1.7.4,3.44.68,5.12,1.15a36.68,36.68,0,0,1,4.9,1.66,3.17,3.17,0,0,1,.92.46c.44.39.75.76,0,1.23-3.63,2.13-6.93,4.76-10.57,6.87-1.3.75-2.19,2.1-3.51,3a53.85,53.85,0,0,0-4.76,4.09c-1.16,1-2.4,1.86-3.57,2.83-1,.81-1.94,1.65-2.86,2.53-.14.13,0,.54,0,.82a26.57,26.57,0,0,0,4.8-3.3c1.67-1.32,3-3.08,5-4,.6-1.63,2.44-1.79,3.48-2.92a23.56,23.56,0,0,1,3.84-2.82,41.14,41.14,0,0,0,3.85-2.78c1.47-1.37,3.34-2,4.79-3.41,1.06-1,2.65-1.69,4,0a8.17,8.17,0,0,1,3.71,1.84c1.54,1.11,3,2.44,4.92,2.93a1.21,1.21,0,0,1,0,.9c-.16.28-.54.65-.81.64-3,0-5.61,1.33-8.41,2a66.83,66.83,0,0,0-7.87,2.55c-2.17.8-4.22,2-6.42,2.66a76.07,76.07,0,0,0-7.12,3c-2,.82-3.93,1.76-5.84,2.75-.35.19-.54.69-.8,1.05,1.77.1,3.11-1.05,4.65-1.61,2.35-.86,4.83-1.52,6.72-3.33A26.41,26.41,0,0,0,161.69,23c3.47-1.3,7-2.45,10.54-3.58a55.88,55.88,0,0,1,9.54-2.62c.49-.07.95-.45,1.45-.53a2.18,2.18,0,0,1,2.34,1.08c1.34,1.82,3.24,3.21,4.47,5.16.15.23.44.37.58.6.44.75,1.36,1.71,1.16,2.23-.38.95-1.62.4-2.47.4-3.67,0-7.27,1-11,.58-2.48.94-5.06.41-7.6.57-1.23.08-2.36.72-3.68.6s-2.54-.35-3.7.48c-.24.18-.72,0-1.1,0a45.7,45.7,0,0,0-4.81.43,33.53,33.53,0,0,1-4.79.71c-.16,0-.34.31-.51.47.22.21.47.62.65.59,1.14-.15,2.18-.69,3.41-.56a3.8,3.8,0,0,0,3.13-.51c.11-.09.36,0,.55,0,3.28-.19,6.55-.42,9.83-.54,1.27,0,2.35-.83,3.69-.62A8.14,8.14,0,0,0,177,28c2.9-.92,5.83-.51,8.72-.43,2.4.07,4.66-.73,7.19-.63-.15,2.46,1.8,4.5,1.05,7.12-.38.34-.43-.36-.71-.39-2.06-.2-4.13-.36-6.19-.59-1-.12-2.07-.39-3.12-.54s-2.21.34-3.13-.56c-.05,0-.18,0-.27,0a69.59,69.59,0,0,0-7.87-.5c-2.68.12-5.23-.68-7.88-.63s-5.4,0-8.1,0c-.56,0-1.13,0-1.68,0s-1.24-.32-1.19.63c.05.73.68.45,1.08.46.71,0,1.5.24,2-.54,1.24.21,2.56-.42,3.76.38a1.66,1.66,0,0,0,1,.16c4.14-.41,8.21.73,12.35.61a14.87,14.87,0,0,1,3.12.53c1,.19,2.22-.46,3.16.48a.69.69,0,0,0,.52.07c2.3-.4,4.49.55,6.76.59a20,20,0,0,1,3.12.53c1,.18,1.9.36,2.84.58.14,0,.36.38.35.39-.85.89-.12,2-.42,2.92-.18.56-.28,1.77-1.34.62-2.64-.24-5-1.82-7.68-1.71-2.46-1.5-5.44-1.1-8-2.17a2.22,2.22,0,0,0-.39-.12H176a10.7,10.7,0,0,0-2.89.13L173,35.3c-.28-.28-.44-.49-.56-.53s0,0-.05,0a3.68,3.68,0,0,1-2.54-.64,3.08,3.08,0,0,0-1.75-.51c-2.47.23-4.83-1-7.31-.56-.18,0-.45.08-.54,0-1.13-1.14-2.4-.26-3.61-.33,1.27.27,2.36,1,3.75,1a14.41,14.41,0,0,1,4.23.54c1.32.36,2.83.15,3.92.64a3.86,3.86,0,0,0,.54.19l.1,0c1.19.3,2.36,0,3.73.32l.11,0a2.4,2.4,0,0,0,.72.9l.15,0a23.21,23.21,0,0,1,2.86.5,6.14,6.14,0,0,0,2.52.64,7.84,7.84,0,0,1,2.85.58c3,.77,6.08,1.49,9.12,2.25a5.58,5.58,0,0,1,1.43.58c.18.1.35.57.27.68a3.53,3.53,0,0,0-.57,1.74c-.3,2.14-.73,2.35-2.61,1.33-3.8-2.07-7.92-3.33-11.94-4.88-1.69-.65-3.5-1-5.13-1.75a4.28,4.28,0,0,0-2-.49,3.6,3.6,0,0,1-1.48-.49,4.55,4.55,0,0,0-2.53-.67c-.37.07-.81-.32-1.23-.36-1.23-.13-2.29-.88-3.61-.78a4.81,4.81,0,0,1-2.76-.67c-.82-.54-1.52-.34-2.86-.26a12.21,12.21,0,0,0,1.83,1,24.29,24.29,0,0,0,4.29,1.08c1.43.15,2.72.8,4,1,1.85.27,3.45,1.32,5.36,1.36a8.77,8.77,0,0,1,2.61,1.05c2.79,1.13,5.56,2.3,8.38,3.35a70.85,70.85,0,0,1,8.09,3.39,1.23,1.23,0,0,1,.47.75c-1.19,1.21-.77,3.37-2.55,4.21-5.23-3.68-11-6.5-16.74-9.36-2.29-1.14-4.67-2.19-7.05-3.2s-4.76-1.53-7-2.53a19.77,19.77,0,0,0-6.26-1.55h-.07c.34.68,1.1.74,1.74,1l.17.08.09,0a1.24,1.24,0,0,1,.27.17v0a1.05,1.05,0,0,1,.24.27c2-.17,3.6,1.2,5.42,1.74a39.19,39.19,0,0,1,5.23,2.21c4.35,2.07,8.91,3.71,13.06,6.17,2.7,1.59,5.76,2.57,8.06,4.84.61.61,2,.28,2.07,1.56s-1.16,1.56-1.77,2.32c-1,1.28-2.08,2.5-3.15,3.72a5.08,5.08,0,0,1-.76.57l-2.75-2.75C178,55.16,176,54,174.33,52.55c-2.21-2-5.07-3.22-6.92-5.64-.74-1-1.94-1.16-2.88-1.79-1.4-.92-2.68-2-4.1-2.92-2.58-1.61-5.21-3.12-7.84-4.66-1.87-1.09-3.72-2.22-5.64-3.22-1-.55-.93.36-.94,1a3.79,3.79,0,0,1,2.74.81c1.71,1.06,3.37,2.22,5,3.34,3.51,2.35,7,4.68,10.5,7,.74.5,1.4,1.11,2.12,1.64s1.3.92,1.94,1.39,1.57,1.17,2.33,1.78c1.12.91,2.22,1.84,3.33,2.76a21.92,21.92,0,0,0,3.35,2.72c1.6.86,2.58,2.3,3.88,3.37,0,.23.08.52,0,.59-1.91,1.49-3.57,3.29-5.65,4.56-.47.29-.72.31-1.06-.23-.77-1.19-1.6-2.34-2.48-3.45s-2.29-2.22-2.86-3.57-2.26-1.88-2.5-3.44c0-.22-.36-.4-.56-.6q-6.31-6.62-12.64-13.21c-1.31-1.37-3.28-1.79-4.54-3.25a16.77,16.77,0,0,0-2.26-1.84c0,.83-.6,1.26.65,1.93,1.53.83,2.64,2.45,4.18,3.45a12.69,12.69,0,0,1,2.32,1.79c1,1,1.82,2.24,2.8,3.29,3.32,3.56,6.88,6.92,10,10.68a52.37,52.37,0,0,1,5.72,7.65,13.12,13.12,0,0,0,1.73,2c-2.22,1.16-4.41,2.4-6.69,3.46-2,.9-4,1.65-6,2.42-1,.4-1.25-.2-1.34-.51-.33-1.26-.66-2.51-1-3.76-1.44-4.71-2.61-9.51-4.57-14-.06-2.8-2.12-4.92-2.57-7.6-.29-1.73-2.32-2.42-2.53-4.21L149,42s0,0-.05,0c-1.39-1.36-2.13-3.35-4.07-4.29l-.14-.07a5.56,5.56,0,0,0,2.13,3.33c-1.31,0-2.23,0-3.13,0a.68.68,0,0,0-.51.44c0,.2.18.62.3.62.78,0,1,.35.62,1a9,9,0,0,0-1.59,3.81c0,.09-.32.24-.44.21a1,1,0,0,1-.58-.39,2.28,2.28,0,0,1,0-.83V34.42c1.91-1,2.47,1,3.69,1.49.26.1.53.15.79.23V35.3a7.39,7.39,0,0,1-.95-1c-.05-.07.69-.5,0-.66a4.5,4.5,0,0,1-1.91-.49,6.51,6.51,0,0,1,1.61-.62c.78-.1,1.62-.22,2.22.62.28.38,1.68,0,1.8-.48a.75.75,0,0,0-.25-.69,9.67,9.67,0,0,0-1.4-.6v.25l-.33.25c0-.11-.13-.31-.1-.33a1.09,1.09,0,0,1,.4-.16h0l-.18-1a3,3,0,0,1-.58.37c-1.08.36-.9-.43-.92-1a3,3,0,0,0-.45.17c-1,.66-1.11.61-1.23-.73-.41.32-.83.63-1.24,1s-.64.79-.12,1.33c.84.88-.68,1.28-.47,2.05a2,2,0,0,0-.58-.3c-.81-.15-2.4,1.15-2.62,2.11l.67-.39c.46-.27,1-.34,1,.32.07,1.86,0,3.73,0,5.59a5,5,0,0,0,.36,1.8c.21.49.38.93-.24,1-.41.08-1,.36-1.28-.53-.47-1.64-.55-1.63-1.88-1.66-.46,0-.93,0-1.39,0a.77.77,0,0,0-.26.07l-.24.08h0a6.29,6.29,0,0,1,.46,1.32h0a1.48,1.48,0,0,1,0,.21,1.45,1.45,0,0,1-.28.6,7.07,7.07,0,0,0-.92,2.41c-.44,1.46-1.05,3-2.83,3.53-.16,0-.27.25-.58.57,1.74.3,3.35,0,5.17.2a7.8,7.8,0,0,1-1.09-1.81,2.47,2.47,0,0,1,.47-2c.42-.6.36-1.51.64-2.24a5.32,5.32,0,0,1,.87-1.19c.26.36.67.69.75,1.09.32,1.56,1.56,2.7,1.83,4.28.07.41.41.81.42,1.21,0,4.27,0,8.53,0,13.11-1.2-.65-2.12.53-3.28-.13-.52-.29-.86.43-.57.82.7.94.48,1.69.08,2.7a48.42,48.42,0,0,0-1.5,5.33c-.56,0-1.19.08-1.81.17-.09,0-.18.3-.18.46a.65.65,0,0,0,.2.46.79.79,0,0,0,.51.08c.84-.12,1.88-.63,2.46-.31.85.47,1.61.19,2.4.28.16,0,.38-.43.57-.67-.2-.13-.41-.41-.59-.38-.42,0-.81.28-1.23.36-.11,0-.42-.27-.4-.34.49-1.57,1-3.12,1.53-4.68.24-.74.46-1.48.69-2.23s.74-.41,1.14-.39c.7,0,.72.61.38.93-.81.75.65,1.18.16,1.85-1,1.4-.45,3-.54,4.52a2.86,2.86,0,0,0,.34,1.81c.51.86-.5,2-1.51,2.07-1.46.09-2.74-.74-4.24-.64-1.3.09-2.76.58-4-.49-2.75.43-5.27-.79-7.92-1.13a5,5,0,0,1-.59-.16c-.3-2.25.6-4.32,1.24-6.38,1.12-3.62,2.51-7.16,3.74-10.74.54-1.56,1.39-3,2-4.51a31.35,31.35,0,0,1,1.84-3.72c.66-1.26,1.27-2.63,1.93-3.93a33.32,33.32,0,0,1,2.14-3.59c.8-1.17,1.74-2.25,2.56-3.41a2.78,2.78,0,0,0,.22-1A23.17,23.17,0,0,0,130.36,47c-.29.91-1.6,1.36-1.15,2.59-1.92,1.84-2.17,4.53-3.21,6.79a52.9,52.9,0,0,0-2.36,7.11c-.81,2.75-2,5.39-2.27,8.29a1.19,1.19,0,0,1-.66.8c-.18.09-.52-.24-.81-.35-2-.75-4-1.48-6.05-2.24-1.48-.56-3-1-4.13-2.55,1.8-2.31,3-5.09,5-7.46,1.16-1.39,2.11-3,3.29-4.47.52-.62,1.27-1.18,1.47-1.9s1-.86,1.4-1.34c.76-.88,1.75-1.5,2.27-2.69.41-1,1.48-1.63,2.29-2.4.47-.43.92-.88,1.37-1.33s.65-.66,1-1l.34-.35c2.6-2.74,5.06-5.68,7.73-8.63l.14-.17.17.17a2.13,2.13,0,0,0,.25-.34s-.11-.11-.17-.17l-.33.26.05,0c-.39.18-.72.09-.87.22-1.42,1.21-2.44,3-4.49,3.34l-2.52,3.42c-.15.22-.24.53-.45.64-2.14,1.14-3,3.56-4.89,4.93a16.9,16.9,0,0,0-1.93,1.66c-2.27,2.2-3.67,5.1-5.92,7.33-1.26,1.24-1.87,3-3,4.36a49.79,49.79,0,0,0-3.16,5.09c-.26.42-.5.29-1,.15a8.7,8.7,0,0,1-3.28-2.23c-.94-.83-1.57-2-2.88-2.47-.66-.23-.44-1.67.2-2.19a9.28,9.28,0,0,0,1.12-1c.23-.25.31-.66.56-.87.68-.57,1.81-.94,2-1.62.37-1.14,1.53-1.08,2.06-1.89a7.84,7.84,0,0,1,2-2c2.84-2,5.13-4.71,8.1-6.67a79.74,79.74,0,0,0,8.06-5.57c.92-.78,2.07-1.3,3-2,.28-.21.36-.69.75-1.49-3.89,2.28-7.37,4.23-10.6,6.48a79.13,79.13,0,0,0-10,7.63c-3.07,3-6.05,6-9.08,9.06-1.9-1.74-2.4-4.56-5.06-5.9,2.19-1.31,4.16-2.45,6.09-3.64.82-.5,1.57-1.14,2.37-1.69a3.89,3.89,0,0,1,1.35-.76c1.61-.27,2.59-1.8,4.2-2,3.69-2.83,8-4.42,12.16-6.4,2.45-1.18,4.85-2.7,7.64-3.11.17,0,.46-.07.48-.15.41-2.06,2.37-1.43,3.56-2.11a1.94,1.94,0,0,0,.29-.21h0c.26-.24.51-.58.89-1,0,.07.1.12.13.11.28-.08.54-.2.82-.31l-.5-.28-.54.33c-2.37.13-4.36,1.06-6.4,1.48h0a8.55,8.55,0,0,1-.86.14c-2.71.32-5.19,1.46-7.82,2.07-3.27.76-6.37,2.18-9.62,3-3.44.91-6.61,2.51-9.93,3.7a47.18,47.18,0,0,0-4.93,2.25c-1.52.75-1.71.66-2.29-.86-.09-.24,0-.54-.12-.79-.32-.9-1-1.8-.39-2.78s1.93-1.14,2.81-1.18c2.09-.08,3.84-1.2,5.88-1.45s4-1,6.09-1.43c1.21-.26,2.72,0,3.61-.66,1.15-.85,2.64.22,3.52-1,2.56.33,4.91-.75,7.35-1.16,3.07-.52,6.12-1.15,9.15-2-1.41,0-2.73-.53-4.21.22-1,.52-2.4.13-3.66.58-1.48.52-3.19.34-4.76.66-3.27.65-6.61.93-9.79,2a3,3,0,0,1-1,.2c-2.35-.08-4.46.95-6.7,1.41-2.54.52-5,1.31-7.56,1.94a6.09,6.09,0,0,1-1.43,0c0-1.28,0-2.39,0-3.49a1.39,1.39,0,0,1,1.45-1.55,22.56,22.56,0,0,0,6.25-1.11,1.27,1.27,0,0,1,.55,0c3.68.43,7.27-.77,10.94-.57,1.9.1,3.69-.79,5.64-.59s3.87.48,5.55-.07c2.22-.74,4.53.15,6.63-.83,1.35.74,2.6-.67,3.93-.17l.08.06c.1.1.1.32-.23.71-.09.08-.17.19-.26.27a.38.38,0,0,1-.35.14.34.34,0,0,1-.15-.07l-.33.42c.47,0,1,.32,1.31.13a.63.63,0,0,0,.3-.36c0-.07.05-.14.07-.22v0a9.06,9.06,0,0,0,2.93-.67l.38-.13a4.77,4.77,0,0,1,3.37,0l.27.11.1,0,.13,0a1.45,1.45,0,0,0,1.72-.47l.13-.15.17.16a2.62,2.62,0,0,0,.24-.34s-.1-.11-.17-.18l-.32.27,0,0c-.46.16-.92.19-1,0-.42-.64.45-1.32.57-1.27C141.83,29.94,142.23,28.83,142.62,28.17Zm-3.88,1.23.11-.11,0,0,.12-.12.26.32c-.06.06-.13.16-.16.17h0A4.08,4.08,0,0,1,138.74,29.4ZM128.57,2.87c3-.46,5.9-1.54,9-1.15a20.55,20.55,0,0,0,2.72,0A29.53,29.53,0,0,0,139.87,5c0,5.11,0,10.22,0,15.32,0,.78.39,1.66-.41,2.35a.76.76,0,0,0,0,.72c1,1.45.19,3,.32,4.54-.31-1.35-1.38-2.34-1.58-3.76-.12-.92-1.48-1.39-1.14-2.59-1.55-1.31-1.54-3.44-2.68-5a35.89,35.89,0,0,1-2.62-5.31c-.82-1.7-1.63-3.41-2.48-5.1a17.91,17.91,0,0,0-1.06-1.79C127.69,3.62,127.83,3,128.57,2.87Zm-1.3-1.13a2.18,2.18,0,0,1,.18.38s-.12.12-.18.18l-.2-.36ZM127,4.42c.86,1.7,1.72,3.39,2.48,5.12.9,2.05,1.95,4,2.81,6.1s1.91,3.86,2.93,5.76c1.22,2.28,1.9,4.84,3.52,6.93.14.17,0,.54,0,.82l-1.68-.56a6,6,0,0,0,0-1.18s0-.07,0-.1a.56.56,0,0,0-.05-.08c-1.26-1.32-2.36-2.78-3.59-4.09a31.24,31.24,0,0,0-2.77-2.45c-2.89-2.4-5.6-5-8.29-7.67-.67-.66-1.47-1.14-2.13-1.83A13.89,13.89,0,0,0,118,9.57a3.71,3.71,0,0,1-.65-.44c-.71-.82-1.39-1.65-2.08-2.48a24,24,0,0,1,2.82-1.06c1.24-.42,2.7-.36,3.71-1.11,1.2-.89,2.66,0,3.82-1C126.18,3,126.7,3.87,127,4.42ZM112.57,4c2,.1,3.81-.68,5.69-.93,2.48-.33,5-1.42,7.9-.44a51.73,51.73,0,0,0-11,2.86,2.56,2.56,0,0,1-2.79-.26,1.87,1.87,0,0,1-.4-.93A1.06,1.06,0,0,1,112.57,4ZM95.65,8.74A46,46,0,0,1,101,6.89q3.4-.91,6.84-1.73c1.43-.34,3.14-.44,4,1.61A27,27,0,0,0,109,7.91a53.41,53.41,0,0,0-8.2,5.18,2.71,2.71,0,0,1-2.82.19c-2.52-1-5.19-1.39-8.27-2.33C91.94,10.12,93.81,9.47,95.65,8.74Zm-32,15.81c1.25-.82,2.45-1.7,3.68-2.55a12.41,12.41,0,0,1,1.75-1.17,47.8,47.8,0,0,0,7.56-4c1.35-.94,3.18-1,4.37-2.24,1.7.09,2.87-1.18,4.31-1.74,3-1.17,2.95-1.32,5.46-.49a34.81,34.81,0,0,0,6,1.68c.24,0,.45.25.68.36,1.29.58,1.37.72.5,1.53a33.37,33.37,0,0,0-4.52,5.68c-.53.78-.74,2.07-1.44,2.38-.93.42-2.18.11-3.3.11H84.22a11,11,0,0,1-2.5-.05c-.73-.17-1.24.87-2.13.12-.35-.29-1.44.36-2.21.47a15.29,15.29,0,0,0-2.31.48,32,32,0,0,1-4.22.54c-2,.27-3.9,1.07-5.93,1.29a20.14,20.14,0,0,0-5.74,1.6c-.22.1-.53,0-.79,0l-.32-.44C59.92,26.92,61.78,25.76,63.62,24.55Zm-26.09,23c.13-.88.1-2,1.39-2.19.23,0,.46-.34.59-.57,1-1.77,2.83-2.66,4.14-4.1s2.72-2.82,4.15-4.15c1.91-1.78,4-3.38,6-5a6.74,6.74,0,0,1,2.88-1.16c3.39-.77,6.71-1.8,10-2.74,1.1-.31,2.23-.13,3.39-.59,1.45-.57,3.17-.44,4.76-.66,1-.13,1.9-.37,2.85-.54s1.85.38,2.58-.55c.11-.13.54,0,.82,0,3.07,0,6.15,0,9.22,0,.87,0,1.09.58.8,1C90,28,90.34,30.13,89.54,32A3.13,3.13,0,0,1,87,34.18c-3.78.29-7.32,1.59-10.95,2.55a68.78,68.78,0,0,0-9.11,3c-1.9-.44-3.4.83-5.08,1.27A23.79,23.79,0,0,0,57,42.64c-4.6,2.42-9.83,3.28-14.28,6a31.31,31.31,0,0,1-5.19,2A23.21,23.21,0,0,1,37.53,47.5Zm1.62,4.07c2.75-1,5.11-2.86,8.07-3.49a18.09,18.09,0,0,0,4-1.77c1.45-.72,3.11-.67,4.39-1.53s2.95-1,4.38-1.61a51.6,51.6,0,0,1,5.37-1.87c4.28-1.38,8.48-3,13-3.8a36.14,36.14,0,0,0,4-1.18,23,23,0,0,1,5.15-1.08c2-.12,2.07-.31,2.06,1.6a9.59,9.59,0,0,1-.32,2.94c-.39,1.12-1.63.52-2.44.73-3.78,1-7.14,3.11-11,3.82-1.16.21-1.85,1.22-2.93,1.7-2.42,1.09-5.11,1.69-7.25,3.42a3.58,3.58,0,0,1-.94.39c-1.21.49-2.56.61-3.49,1.76-.65.81-2.13.45-2.67,1.6-4.91,2.31-9.25,5.55-13.82,8.42A51.8,51.8,0,0,0,40.35,65c-.55-1.84-1.59-3.32-1.82-5.25a16.31,16.31,0,0,0-1-5.16C37,53.4,37.63,52.13,39.15,51.57ZM31.92,52.9c1-1.89,2.71-3.15,4.24-4.82.81,2.63,0,4.14-2.49,4.77a10.12,10.12,0,0,0-1.15.56c-.41.17-.45,1.09-1.14.59A6.29,6.29,0,0,1,31.92,52.9ZM9,97.43a8,8,0,0,1-2.22,4.08h0v0l-.2.16h0l0,0h0l-.08.06c0-.12-.13-.31-.09-.34a.88.88,0,0,1,.28-.12c.49-1.87.87-3.35,1.3-4.81.05-.14.45-.23.7-.25s.33.18.36.32A1.75,1.75,0,0,1,9,97.43Zm.55-2.58c-.89-2.13.43-3.75,1.1-5.52s1.46-3.68,2.15-5.53,1.74-3.54,2.43-5.41a39.3,39.3,0,0,1,3.1-5.69c.62-1.06,1.32-2.06,2-3.1,1.65-2.66,3.13-5.45,5-8a20,20,0,0,1,4.16-4.75C31.2,55.58,33.47,55,35,53.29c.2-.23.84-.08,1.3-.1a65.27,65.27,0,0,0,2.58,12.2c.11.36.32.52,0,.8-1.13.88-2.24,1.79-3.37,2.67-.34.26-.9.37-1.08.7-1.39,2.55-4.11,3.74-5.95,5.84s-4.08,4.08-6.07,6.16c-1.06,1.1-2,2.33-3,3.5s-2.28,1.86-2.77,3.33c-2.43,1.83-3.62,4.72-5.72,6.83C10.05,96,9.94,95.89,9.51,94.85Zm11.2,18.08a4.93,4.93,0,0,0-.68-.83c-2.33-2.13-3.82-4.86-5.53-7.47a36.45,36.45,0,0,1-3.38-5.87,1.29,1.29,0,0,1-.06-1c.4-1.87,2-2.87,2.88-4.4a32.15,32.15,0,0,1,2.9-3.55c2.2-2.87,4.93-5.26,7.14-8.14a66,66,0,0,1,5.86-6,53.94,53.94,0,0,1,7.62-6.53,18.46,18.46,0,0,0,2.1-2.07c.46.78.8,1.29,1.06,1.84a53.61,53.61,0,0,0,4.93,8.29c.2.28.19.72.42.93.45.4.48.72,0,1-1.7.92-2.58,2.65-3.91,3.92s-2.23,3-3.47,4.41c-2.59,2.85-4.23,6.36-6.78,9.23-.6.68-.82,1.73-1.48,2.32a3.06,3.06,0,0,0-1.22,2.37c0,.22-.27.45-.44.65a19.5,19.5,0,0,0-3.12,5.41c-.77,1.84-2.41,3.18-2.67,5.33C22.73,113.87,21.41,113.89,20.71,112.93Zm-8.8,42.79c0-.32.37-.62.4-.94.22-2.16.25-4.34.61-6.47.52-3.12,1.11-6.23,1.73-9.33,1.14-.83,0-2.23.91-3.29.59-.69.4-2,.7-3,.69-2.31,1.43-4.62,2.23-6.9.91-2.6,2.13-5.08,2.81-7.78.28-1.11,1.06-1.16,2-.41,3.56,2.85,6.63,6.31,10.7,8.55,1,.58,1.74,1.71,3.06,2.08a1.52,1.52,0,0,1,.95,2.24c-1,2.15-1.28,4.49-1.95,6.73-.86,2.91-1.47,5.89-2.48,8.75.4,1.67-.57,3.17-.59,4.8a17.86,17.86,0,0,1-.53,3.12c-.21,1,.52,2.23-.54,3.14-.1.07,0,.36,0,.54-.18,2.62-.35,5.25-.57,7.87a8.15,8.15,0,0,1-.41,1.5,4.39,4.39,0,0,0,.35,3.07,3.55,3.55,0,0,1-2.79-.39c-2.23-.93-4.66-1.43-6.56-3-.69-.58-1.6-.62-2.37-1.07a19.28,19.28,0,0,1-4.23-3.25c-.23-.24-.63-.3-.91-.5-.86-.62-2.19-1.1-2.46-1.92C11.54,158.56,11.85,157.09,11.91,155.72Zm-10.61-9,.12-.1h0c0,.06.07.12.1.19a.62.62,0,0,1,.07.19s-.11.12-.17.18a1.81,1.81,0,0,1-.18-.37S1.27,146.74,1.3,146.71Zm6.46,37.52c-.3-1.19-.24-2.56-1.32-3.67-.68-.69-.74-2.13-.78-3.25a10.47,10.47,0,0,0-.61-3.11,33.41,33.41,0,0,1-1.12-5.12c-.15-.86-.39-1.71-.54-2.57s.31-1.69-.57-2.29c0,0,0-.18,0-.27.41-2.3-.66-4.46-.6-6.75,0-1.22-.41-2.44-.5-3.68s.08-2.61-.07-3.9a1.18,1.18,0,0,0,0-.2l0-.06-.06-.16h0A10.12,10.12,0,0,0,.68,148c-.05-.09-.11-.17-.17-.26.54.19,1-.27,1.46.15v0l.08.09,0,.06a.35.35,0,0,0,.05.08l.06.12,0,.07a1.73,1.73,0,0,1,.1.24c.7,1.82,1.2,3.88,2.87,5.25.45.37.63,1,1,1.52A37.43,37.43,0,0,0,9.42,159a3.76,3.76,0,0,1,1.26,3.14c-.08,4.65-.17,9.31,0,14,.11,2.81.7,5.59.51,8.43,1,1.69.42,3.56.54,5.35a5.57,5.57,0,0,0,.53,2.58c.38.66-.11,1.53.37,2.37.39.69.19,1.72.29,3.12A95.5,95.5,0,0,1,7.76,184.23Zm6.8,15.63a14.45,14.45,0,0,0-1.1-4.85.53.53,0,0,1,0-.28c.4-2.21-.56-4.29-.6-6.47a39.8,39.8,0,0,0-.62-8.41c-.72-3-.32-6-.43-9s0-5.94,0-8.91c0-.07.12-.13.3-.31,1,.74,2.15,1.47,3.18,2.28a33.92,33.92,0,0,0,10.18,5.8c1.42.48,2.8,1.31,4.24,1.9.52.22,1.21.25,1.06,1.2-.21,1.32.32,2.72-.56,4a1.24,1.24,0,0,0,0,1.08c1,1.73.42,3.59.52,5.38.23,3.74.17,7.51.65,11.22.33,2.64,1,5.23,1.11,7.92a13.77,13.77,0,0,0,1.27,5c.5,1.06.08,1.92.45,3a9.69,9.69,0,0,1-2.73-.76c-2.13-1.41-4.62-2-6.94-2.83-1.28-.48-2.5-1.15-3.85-1.52a21.06,21.06,0,0,1-3.51-1.64A4.06,4.06,0,0,1,14.56,199.86Zm27.53,41.67c-.5-.51-1-1-1.51-1.53-.87-.9-1.55-2-2.4-2.9-.61-.68-1.25-1.35-1.87-2a80.25,80.25,0,0,1-5.37-6.41c-1.46-1.88-2.81-3.85-4.16-5.82-1.94-2.82-3.9-5.63-5.71-8.53s-3.62-6.13-5.62-9.54a6.42,6.42,0,0,1,1.9.3c3.24,1.84,6.8,2.94,10.19,4.43,2,.89,4.21,1.49,6.27,2.4.75.33.78.65.93,1.29.45,1.94,1.08,3.83,1.64,5.74,1.14.62.45,1.82.85,2.73,1.57,3.63,3,7.35,4.35,11,1.18,3.14,3.09,6,3.87,9.3.24,1.05,1.17,1.92,1.7,2.92a5.51,5.51,0,0,1,.42,1.2c0,.18.1.36.16.54l-.44,0C45.55,245,43.81,243.28,42.09,241.53Zm6,5.75H48c-.13-.05-.21-.21-.3-.37l-.09-.17a2.17,2.17,0,0,1,.51,0,6.43,6.43,0,0,1,.83.33C48.51,247.16,48.27,247.27,48.08,247.28ZM51.92,250c-.89-.14-1.67-1.23-2.14-2.3-1.32-3-2.76-5.92-4-9-.85-2.13-1.9-4.23-2.84-6.37a63.13,63.13,0,0,1-3.24-7.89c-.35-1.25-.94-2.39-1.22-3.71A35,35,0,0,0,37.4,217c-.41-1.22-.88-2.42-1.23-3.68-.17-.61-.32-.78.33-.7a9,9,0,0,1,1.45.53c.92.26,2,.23,2.73.78.87.7,2.13-.25,2.73.9,1.92-.12,3.51,1,5.29,1.4.69.16,1.42.15,2.12.29a14.21,14.21,0,0,0,1.73.52,8.75,8.75,0,0,1,2.3.54,30.67,30.67,0,0,0,4.84,1.14c.59.1.54.49.79.8,1.1,1.39,1,3.15,1.55,4.69,1,2.85,1.56,5.88,2.32,8.83.34,1.34,1.41,2.47,1.2,4,1.49,1.83,1.27,4.28,2.31,6.32s1.32,4.1,2.11,6.11c.62,1.6,1.49,3.11,2.39,4.93-2.19.5-3.93-.44-5.75-.67-2.68-.33-5.18-1.51-7.85-1.94C56.42,251.41,54.29,250.34,51.92,250Zm25.63,17.32a.74.74,0,0,1-.71,0c-1.26-1.61-3.32-1.95-4.87-3.11s-3.09-1.94-4.63-2.93c-2.57-1.64-5.1-3.37-7.71-5-1.56-.95-2.73-2.5-4.61-3a5.53,5.53,0,0,1-1.51-1.06l.49-.46c3.64.79,7.14,2.12,10.81,2.89,2.09.44,4.32.59,6.3,1.56,2.21-.6,2.27,1.15,2.76,2.48A17.12,17.12,0,0,0,75,261.05c1,1.82,1.32,4,2.77,5.56C77.84,266.71,77.72,267.18,77.55,267.32ZM104.2,278a1.93,1.93,0,0,1-1.06-.1,4.47,4.47,0,0,0-3.23-1c-1.56-1.45-3.83-1-5.56-2.11-.63-.4-1.53-.36-2.21-.71A6.1,6.1,0,0,0,89,273c-.54,0-1.09-.48-1.63-.75-1.7-.85-3.4-1.7-5.08-2.57s-3.36-1.45-3.41-3.68c-1.55-1.63-1.81-3.92-3-5.76-.51-.81-.31-2-1.37-2.53-.09,0-.08-.56,0-.7a.75.75,0,0,1,.72-.13A11,11,0,0,0,79.87,258a18,18,0,0,1,2.57.52c.77.15,1.67-.33,2.31.52.11.14.54,0,.81.06,1,.2,2.09-.34,3.17.48.67.51,1.82.14,2.83.52a19.4,19.4,0,0,0,5.32.65c1,.06,1.3.52,1.63,1.42.64,1.71.5,3.57,1.55,5.24.94,1.49,1.09,3.45,1.79,5.11a45.38,45.38,0,0,0,2.36,4.33,11.27,11.27,0,0,0,.76,1A3.09,3.09,0,0,1,104.2,278Zm19.94,4.16a7.13,7.13,0,0,0-1-.22c-4.61-.67-9.25-1.15-13.68-2.72-1-.35-2.2.26-3.08-.64a2.94,2.94,0,0,1-.61-.67c-.51-1.09-1-2.19-1.46-3.3a5.9,5.9,0,0,1-.84-2.47c0-1.14-1.25-1.83-1.36-3.05-.15-1.65-1.59-2.91-1.45-4.73,0-.55-.71-1.16-1.08-1.76-.22-.34-.42-.7-.89-1.5,2,.44,3.63-.51,5.12.69.06.05.19,0,.28,0,1,0,2.05-.08,3.07,0a16.1,16.1,0,0,0,2.84.49c3.5-.31,6.9.8,10.38.63,1.13-.06,1.45.44,1.61,1.66a46.8,46.8,0,0,0,2,8.93c.35,1-.43,2.27.72,3.05a4.74,4.74,0,0,0,1,3.24,2,2,0,0,1,.19,1C126,282.71,125.92,282.74,124.14,282.2Zm19.08-.86c0,.54,0,1.08,0,1.75a84.25,84.25,0,0,1-9.56-.1c-1.78-.21-3.56-.42-5.36-.46a1.2,1.2,0,0,1-1.28-1.14c-.19-2-1.47-3.83-1.51-5.76,0-2.38-1-4.48-1.42-6.74-.22-1.31-.17-2.75-.94-4.06-.61-1.05.42-1.88,1.71-1.5a2.09,2.09,0,0,0,.76.17c4-.38,7.83.75,11.76.56.7,0,1.39.19,2.09-.37s1.65.94,2.47-.06c.24.46.66.91.69,1.38.09,1.39,0,2.79,0,4.18,0,2.05,0,4.1,0,6.14,0,1.06-.29,2.15.5,3.16a1.58,1.58,0,0,1-.08,1.55C142.32,280.66,143.22,280.92,143.22,281.34Zm17.3-1a2.92,2.92,0,0,1-2.56,2.16c-4.66.16-9.3,1-14.11.4a4,4,0,0,0,.46-1.29c-.12-1.79.26-3.57-.46-5.39-.44-1.13-.08-2.57-.08-3.88v-8.16c1.7-.24,3.36-.57,5-.68s3.54,0,5.31,0c3-.13,6-.37,9-.54a4.78,4.78,0,0,1,1.65.06,1.14,1.14,0,0,1,.61.94,29,29,0,0,1-1,3.23,12,12,0,0,0-1,2.91c-.11,2.43-1.51,4.45-2,6.76A17.55,17.55,0,0,1,160.52,280.38Zm21.27-2.87a1.28,1.28,0,0,1-.73.53,38.8,38.8,0,0,0-5.29,1.4c-1.19.51-2.44,0-3.61.78-1,.66-2.37.59-3.63.69-2.19.17-4.36.69-6.69,1.09a6,6,0,0,1,.36-3.56c1.11-4.11,2.9-8,3.44-12.3a14.12,14.12,0,0,1,.55-1.72c.48-1.69,1.08-2.07,3-2,3.57.1,7.08-1,10.67-.57a7.22,7.22,0,0,1,4-.55c1.27,0,2.35-1,3.69-.6a.63.63,0,0,0,.24,0,3,3,0,0,0,.53-.17l.27-.09a1.84,1.84,0,0,0,0,.33,2.8,2.8,0,0,1-.18,1c-1.6,3.17-2.47,6.62-3.7,9.93A36.85,36.85,0,0,1,181.79,277.51ZM206.43,267a6.91,6.91,0,0,1-3.55,3.15c-1.75.72-3.63,1.17-5.3,2a67.82,67.82,0,0,1-8.41,3.29c-1.78.63-3.61,1.09-5.43,1.63.8-.89.69-2,1.13-2.87,1.37-2.61,2-5.5,3.08-8.21a46.87,46.87,0,0,0,1.66-4.61,1.45,1.45,0,0,1,1.82-1.19c1.38.19,2.64-.39,4-.56a15.92,15.92,0,0,0,3.7-.48c1.55-.57,3.41-.25,5-.7,2.18-.61,4.6-.23,6.58-1.62.12-.07.35,0,.53,0a1.88,1.88,0,0,0-.12.59c.22,1.39-1.23,2-1.42,3.35-.16,1.11-1.19,2.08-1.72,3.17S207,266,206.43,267Zm23.34-13.13c-1.31.59-2.1,1.88-3.45,2.45A13.72,13.72,0,0,0,224,258a25.24,25.24,0,0,1-3.7,2.53c-3,1.42-5.55,3.55-8.62,4.81a29,29,0,0,0-3.82,2.4,28.09,28.09,0,0,1,2.62-5.73,9.46,9.46,0,0,0,1.48-3c.38-2.39,2.32-2.39,3.78-2.7,2.4-.51,4.78-1.16,7.17-1.57,2.18-.37,4.19-1.32,6.39-1.49a3,3,0,0,0,.59-.16C229.82,253.35,229.88,253.78,229.77,253.83Zm1.06-.46-.36-.2c.06-.07.14-.19.18-.18a1.33,1.33,0,0,1,.38.18Zm2.46-2.73c-.46,1.05-1.75.19-2.17,1.13-2-.08-3.69,1-5.58,1.39s-3.74.72-5.59,1.28-3.79.66-5.93,1.19a1.28,1.28,0,0,1-.3-.61,2.42,2.42,0,0,1,.25-1c1-2.56,2.08-5.1,3.06-7.67.46-1.21.49-2.68,1.2-3.68,1.11-1.56.79-3.61,2-5,.39-3,1.82-5.78,2.48-8.77a78.88,78.88,0,0,1,2.15-7.75,2.22,2.22,0,0,1,2-1.87,76.3,76.3,0,0,0,9.14-2.17c3-.84,6-1.8,8.9-2.8,1.3-.44,2.5-1.15,3.79-1.62.35-.13.85.14,1.28.23-.13.32-.26.63-.37,1-1,2.94-1.94,5.9-3,8.82-.55,1.53-1.27,3-1.94,4.5-.74,1.65-1.2,3.45-2,5-1,2-1.92,4-2.87,6.08-1,2.19-2.16,4.32-3.27,6.46S234.19,248.57,233.29,250.64Zm32.93-38.94c-1.72,2.74-3,5.77-5.25,8.17-.43,2.42-2.89,3.52-3.69,5.73a5.36,5.36,0,0,1-1.44,1.63,23.3,23.3,0,0,0-4.17,5.25,10.15,10.15,0,0,1-1.55,1.6c-1.45,1.63-3.35,2.86-4.35,4.9a.49.49,0,0,1-.19.19c-1.66,1.08-2.7,2.79-4.1,4.12s-2.77,2.76-4.16,4.14a3,3,0,0,1-.66.42.28.28,0,0,1-.27,0c-.1-.09-.25-.28-.22-.35.11-.23.31-.42.45-.65,1-1.71,2.18-3.37,3-5.16a39.33,39.33,0,0,0,1.88-4.23,22.69,22.69,0,0,1,1.36-3.36,101.88,101.88,0,0,0,4.42-10.45c1-2.48,2-4.95,2.82-7.49.35-1.06.74-2.12,1-3.2a2.72,2.72,0,0,1,1.88-2c1.78-.65,3.53-1.35,5.25-2.16s3.69-1.83,5.63-2.57a24.8,24.8,0,0,0,5.25-2.85,4.86,4.86,0,0,1,1.66-.29C269.21,206.12,267.91,209,266.22,211.7Zm7.88-16.18-.33.26c0-.12-.13-.31-.09-.34a.75.75,0,0,1,.2-.1l.22-.07v.25Zm.25-.25-.06-.06-.07-.06-.12-.13.32-.26a1.32,1.32,0,0,1,.17.17h0A4.08,4.08,0,0,1,274.35,195.27Zm-.81-2.62c-.87.81-.43,1.88-.57,2.83s-.38,1.71-.54,2.56a4.28,4.28,0,0,1-1.85,2.91c-3.55,2.59-7.55,4.25-11.42,6.18-1.77.88-3.56,1.74-5.37,2.55a1.5,1.5,0,0,1-1.26,0,1.29,1.29,0,0,1-.21-1.23c.8-1.05.61-2.35,1-3.49s.23-2.32.64-3.37c.77-2,.48-4.18,1.6-6,.13-.21,0-.55,0-.82.19-2.16,0-4.44.66-6.43s.3-4,.89-6,.09-4.24.14-6.38c0-1.43.8-2.74.61-4.24-.07-.53.67-.88,1.35-1.08,1.07-.3,2-1,3.08-1.29s1.62-1.85,3-1.43c2.39-1.64,4.79-3.27,7.17-4.93,1.37-.95,2.7-1.94,4.32-3.11,0,2.12.27,3.85-.07,5.45-.54,2.62-.14,5.3-.6,7.85-.34,1.91-.29,3.77-.48,5.65a16.8,16.8,0,0,0-.58,2.84,4.32,4.32,0,0,1-.3,2.66c-.44.78,0,2-.25,3C274.17,189,273.43,190.75,273.54,192.65Zm10-38.54c-.1.41-.55.81-.5,1.16.36,2.68-.67,5.23-.62,7.87a19.64,19.64,0,0,1-.51,2.56,21.36,21.36,0,0,1-.47,2.59c-.33,1.24-.39,2.61-.61,3.93-.49,2.95-1.79,5.74-1.74,8.79-1.15,1.72-1.12,3.81-1.77,5.68s-1.31,3.55-2,5.33c-.27.72-.51,1.45-.76,2.18-.11-3.44,1.29-6.47,1.21-9.79,0-1,.58-2,.49-3.12s.81-1.95.6-3.13a6.62,6.62,0,0,1,0-3.31c.68-1.89.13-3.83.55-5.64.77-3.28.39-6.56.48-9.83a2.11,2.11,0,0,1,.68-1.41c1.27-1.54,3.17-2.53,4-4.49.05-.12.55-.18.71-.08A.82.82,0,0,1,283.58,154.11Zm.57-12.31c-1,2.48-.43,5.06-.51,7.6a3.69,3.69,0,0,1-.86,2.16c-1.37,1.81-2.91,3.48-4.73,5.59.08-3.23-1-5.69-.59-8.26-1-1.81-.48-4-1.54-5.8a1.52,1.52,0,0,1-.12-1.05c.36-1.5-.45-2.83-.64-4.24s-.74-2.55-1-3.77c-.68-4.07-2.64-7.72-3.53-11.71-.37-1.64-1.45-3.12-2.17-4.69-1.18-2.58-2.24-5.23-3.53-7.76a1.61,1.61,0,0,1,.15-2.14c1.68-2,2.56-4.61,4.36-6.58,0-1.91,1.84-3.18,1.85-5.12,0-.27.43-.67.74-.75s.61.32.76.59c2.23,3.93,4.84,7.64,6.74,11.76a30.16,30.16,0,0,1,1.78,6,27.41,27.41,0,0,1,.56,2.84,15.68,15.68,0,0,0,.47,2.59,21.82,21.82,0,0,1,.56,4.5c.28,4.48,1,8.95.69,13.47-.09,1.32-.39,2.73.51,4A1,1,0,0,1,284.15,141.8Zm-276-10.27c-1.64.6-2,1.12-2,3v2c1.18-1.79,2-3,2.79-4.28a.5.5,0,0,0-.08-.49A1,1,0,0,0,8.15,131.53Zm-1.28-6.88a2.15,2.15,0,0,0,.75.07s0,0,0,0,.14-.28.22-.44l-.15-.3c-.23-.46-.46-.93-.73-1.38,0-.08-.41-.09-.52,0-1,.76.55,1.18.27,1.87C6.72,124.49,6.82,124.64,6.87,124.65Zm5.46-8.8a1.49,1.49,0,0,0-.43.17s.06.22.1.34c.07-.07.16-.12,1.43.54a4,4,0,0,1,.62,1.4c0,.19.77.33,1.16.31l0,0a.87.87,0,0,0,.41-.47c0-.91.08-1.5-.53-2-1.18-1-2.29-2-3.45-3.05,0,0-.46.32-.45.47a2.16,2.16,0,0,0,.33,1.23,25.4,25.4,0,0,1,1.76,2c-.29-.2-.62-.41-1-.65ZM145.41,222.08c.46.06.9.21,1.22-.61.73-1.92.51-4.21,2.16-5.8.14-.14,0-.54,0-1.08-.18-.08-.55-.36-.71-.27a4.38,4.38,0,0,0-2,2.61c1.18.78-.15,1.4-.2,2.1a10.75,10.75,0,0,1-1,2.34C144.86,221.54,145.21,222.06,145.41,222.08Zm-.32-72.59a4.4,4.4,0,0,0,1.5-3.7,8.44,8.44,0,0,1,.16-1.87,3,3,0,0,1,.18-.58c-.25,0-.61-.09-.73,0-.48.51-1.35,1.24-1.23,1.63C145.41,146.47,144.51,147.86,145.09,149.49ZM131.11,36a.13.13,0,0,0-.06.07,2.24,2.24,0,0,0-.14.39H131c2.27-.34,4-1.74,5.89-2.89a.16.16,0,0,0,.07-.07h0l.27-.5-.15.12A20.67,20.67,0,0,0,131.11,36Zm6.15-3.06c0,.25.26.49.79.72V31.53c-.26.41-.84.87-.79,1.33Zm-6.61,3.53c-.45,0-.91,0-.85.6a1.43,1.43,0,0,0,.2.44c.31-.25.62-.51,1-.78a.92.92,0,0,1-.14-.14A.43.43,0,0,0,130.65,36.43Zm18.71-5.07a2.42,2.42,0,0,0,1.07-.37c-.19-.95,1-.46,1.11-1.18-1-.12-1.95-.42-2.64.64A.56.56,0,0,0,149.36,31.36Zm4-.57-2.55.17C152.18,32.06,152.18,32.06,153.41,30.79Zm-3.76,2.93a1.72,1.72,0,0,0-.39,0h0a2.83,2.83,0,0,0-.44.11,1.94,1.94,0,0,0-.3.13l3.06.91-.12-.1.14,0a3.65,3.65,0,0,0-1.92-1.1Zm6.42,0H154a.31.31,0,0,1,.09.07C155.23,34.63,155.26,34.62,156.07,33.72Zm-2.72-.86c0,.26.05.54.09,1,.12-.15.22-.25.28-.32s.11-.12.11-.17a6,6,0,0,0-.13-.72c-.13,0-.35.07-.35.1Zm-1.47.2-.2.36.2.2.1-.18a1.54,1.54,0,0,0,.08-.19S151.94,33.13,151.88,33.06ZM64.05,152.8a1.29,1.29,0,0,1-1.34-1.1,5.5,5.5,0,0,1,.31-1.8c0-.17.24-.38.19-.47a13.15,13.15,0,0,0-.76-1.08c-.26.22-.68.4-.76.68-.15.51,0,1.1-.18,1.61-.06.21-.51.39-.8.42s-.53-.19-.79-.3c-.12.51.08.65.57.94a2.3,2.3,0,0,1,1,2.47c-.07.3-.48.57-.78.76-.06,0-.5-.28-.56-.49-.42-1.48-1.56-1.94-3.34-2.42a5.6,5.6,0,0,1,.79,1.09c.14.41,0,1.06.28,1.25a38.35,38.35,0,0,0,3.5,2.3.77.77,0,0,0,.68-.27,10.67,10.67,0,0,0,0-1.39c0-1.12.41-1.37,1.5-1,.24.09.43.34.67.42s.43,0,.47-.13a1,1,0,0,0,.07-.73C64.64,153.25,64.33,152.82,64.05,152.8Zm-6.33,18.11s0,0,0,0a.56.56,0,0,0,.5.32c.24,0,.52-.08.77-.09l.11,0H59l1.4,1.13c1.44,1.14,3.85,1.48,3.47,4.16,0,.07.41.26.65.3s.42-.18.41-.26a23.76,23.76,0,0,0-.18-4.87c-.48.59-.26,1.65-1.31,1.11-.38-.19-.93-.29-1.12-.6a2.83,2.83,0,0,0-.2-.28.8.8,0,0,0-.13-.13l-.08-.08a2.28,2.28,0,0,0-1.59-.48h-1c-.12-.48-.36-.6-.63-.6s-.56.09-.83.08a.57.57,0,0,1-.22,0,1.56,1.56,0,0,0,0,.16A.79.79,0,0,0,57.72,170.91Zm1.57.31h-.16v0Zm78.36,9.9c1.12-1.87.76-4.09,1.6-6a5.07,5.07,0,0,0,0-2.48c-.1-.71-1.3-1-1.69-.46-1,1.47-2.77,2.3-3.34,4.14a3.66,3.66,0,0,1-1,1.26c-.9.93-1.84,1.83-2.75,2.76-1.14,1.19-2.3,2.28-4.14,2.12-.15,0-.44.32-.44.51s.23.56.37.56c1.54,0,3.09,0,4.41,0-.06-.71-.28-1.29-.09-1.6a3.94,3.94,0,0,1,4.26-1.76c.4.06,1-.25,1.06.48a2.48,2.48,0,0,1-.33,1.24,4,4,0,0,1-1,1,6,6,0,0,1-1,.46c2,.58,3.81-.47,5.41.68a7.54,7.54,0,0,0,1.08-1h-2.47C137.62,182.2,137.41,181.52,137.65,181.12Zm-1.24-2.87a1.45,1.45,0,0,1-1.84.79,1.81,1.81,0,0,1-.84-.42c-.07-.07.11-.5.27-.68.91-1.09,1.86-2.16,2.79-3.23l.38,0A26.72,26.72,0,0,1,136.41,178.25Zm13.73,79.65c.23-.06.43-.32.6-.53,1.23-1.39,1.14-2.64-.23-3.62a6.58,6.58,0,0,0-3.93,0,1.23,1.23,0,0,0-.55,1.43c0,.2.36.54.42.51a5.49,5.49,0,0,0,1.1-.69c.1-.08.1-.32.14-.48.12-.65.32-.3.66-.12,2,1,2.06,1.22.44,2.71a4.42,4.42,0,0,1-1.53,1,3.48,3.48,0,0,0-2.3,2.82,9,9,0,0,0,1.43-.71A10.79,10.79,0,0,1,150.14,257.9Zm-1.33,1.71a4.38,4.38,0,0,0-.56.71,3.21,3.21,0,0,0,.88.38c1.46.18,2.07-.76,2.62-2-.8.14-1.44.21-2.05.38A2.54,2.54,0,0,0,148.81,259.61ZM87.87,176.86c2.26,1.15,4.69,2.1,6.12,4.41a4.92,4.92,0,0,0,.59.87,1,1,0,0,0,.71.24c.17,0,.29-.38.37-.61.4-1.14-.8-2.29,0-3.44a4,4,0,0,0-.84-.34c-.77,1.12-1.28.85-2.26,0s-2.57-1.38.8-2.4c-.55,0-1.86.07-4.91.3.92-1.18,2.08-.91,3.36-.5a1.78,1.78,0,0,0,1.55-.34c.23-.28,0-1-.15-1.54,0-.16-.24-.28-.38-.4-1-.85-1.7-2.17-3.12-2.6-.13,0-.26-.53-.17-.71s.55-.35.67-.27a12.09,12.09,0,0,0,3.1,1.31c.65.22,1.62.49,1.26,1.65a.9.9,0,0,0,.59.34.72.72,0,0,0,.48-.48c0-1.65,0-3.31,0-5.36-.76.76-1.2,1.57-1.75,1.65s-1.28-.72-2-.77c-1.58-.11-2.72-1.13-4-1.74-.4-.19-.67-.65-1-1-.89.91-.58,2.08-.18,3.16a6,6,0,0,0,1.11,1.5c.92,1.11,2.26,1.87,3,3.57-1.29,0-2.51.41-3.39-.13-1-.65-1.24.28-1.28.58a29.78,29.78,0,0,0,0,3.39C86.9,177.07,87.53,176.68,87.87,176.86Zm.54-15.15,2,1.06c.12-.51.1-1.32.39-1.46a2.89,2.89,0,0,1,1.84,0c.77.23,1.09,1.85.47,2-1.21.27-.91.95-.74,1.59.12.43,1.58,0,2.07-.59.09-.11,0-.37.07-.52.9-1.73.77-2-.58-3.5-.76-.85-1.61-.64-2.49-.8-1.11-.21-.65.9-1.15,1.17a8,8,0,0,0-.82.73,8.82,8.82,0,0,0,0-2.1,10.92,10.92,0,0,0-1-2c-1.47.24-.28,1.38-.66,2-.08.14,0,.44,0,.53C86.66,160.86,87.57,161.27,88.41,161.71Zm5.23,13.84a.57.57,0,0,0,.13.08h0s.11-.11.18-.18l-.27-.32-.25.25ZM35.88,151.39c.58.46.4-.17.5-.41a1.42,1.42,0,0,1,1.71-1,1.36,1.36,0,0,1,1.1,1.63c0,.15.1.32.21.65.48-.48.92-.88,1.32-1.33a1.23,1.23,0,0,1,1.71-.21,1.35,1.35,0,0,1,.52,1.89c-.27.55-.61,1.06-1.07,1.85a2.1,2.1,0,0,0,2.24-1.56c.08-1.2.62-2.56-.39-3.7s-1.43-1.16-3.06-.45c-.75.32-1.45.74-2.18-.23a1,1,0,0,0-1.66.17,13.42,13.42,0,0,1-1.21,1.71C35,151,35.63,151.2,35.88,151.39Zm3.27,16.72a1.6,1.6,0,0,0,.58,0,1.83,1.83,0,0,0-.21-.74c-.23-.27-.56-.62-.84-.62-1.37,0-2.17-1.09-3.3-1.75H41c0-.12-.07-.22-.1-.32l0-.08c-.44-1.12-1.38-1.86-3-4.47a9.24,9.24,0,0,0,3.58,1.55c.74.09.44.65.51,1s0,.84.53.36c.2-.18.43-.67.35-.75a1.74,1.74,0,0,1-.22-2.05c.79-1.07.32-2,.44-3.46-.56.71-1.1,1.09-1,1.39.21,1.38-.71,1.45-1.49,1.19a38.2,38.2,0,0,1-4-1.63l-.3-.59c0,.15.07.32.12.5l-.58-.27a.76.76,0,0,1-.27-1.33.75.75,0,0,0,.12-.14h0c.59-.78-.31-1.06-.74-1.59-.57,1,.36,2.34-.76,3.13.88.57.31,1.55.62,2.24.37.84,1.71.85,1.92,2a.87.87,0,0,0,.53,0,.7.7,0,0,0,.19-.28c0,.1.06.19.1.29.12.54.24,1.08.4,1.82l-3.76-.61v3.83C36,166.55,37.55,167.39,39.15,168.11Zm2.64-1.35c-.55,0-1.57,1.17-1.48,1.62.23,1.22.77,2.39.56,3.68,0,.07.29.28.42.26s.63-.16.66-.31c.27-1.48-.49-3.08.48-4.51C42.48,167.42,42,167,41.79,166.76Zm-7.65.24v-.25a1.42,1.42,0,0,0-.42.17s.06.22.09.34ZM16.66,153.85A32.5,32.5,0,0,0,20,156.31a6.64,6.64,0,0,1,1.37,1.38c.25.33.21.86.44,1.21.49.71.38,1.89,1.66,2.1,0-.84,0-1.67,0-2.5a2,2,0,0,0-1.19-1.82,1.53,1.53,0,0,1-.45-.25c-1.12-.91-2.24-1.82-3.8-3.11a15.47,15.47,0,0,1,2.14,0c.5.09,1,.45,1.46.51s1.05,0,1.22-.28a1.31,1.31,0,0,0-.17-1.25c-1.25-1.19-1.43-3.13-2.93-4.14a.57.57,0,0,1,.52-1c1.24.59,2.49,1.19,3.68,1.9.53.32,1.06.84.3,1.56-.08.08.32.65.52,1,.59-1.17.57-1.16.38-2.77a3.23,3.23,0,0,1,.14-1.06c.11-.51.54-1.15.36-1.48-.39-.7-.69.44-1.26.26s-1.18,0-1.76-.52A7.11,7.11,0,0,0,20.39,145a2.42,2.42,0,0,1-1.91-2.55c0-.63,0-1.25,0-1.87-.61.62-.72,1.43-1.15,2-.89,1.13.14,2.13,0,3.19,1.58,1.44,1.77,3.73,3.77,5.55-1.7-.37-2.88.27-4-.59-.18-.14-.92.12-1.09.38-.66,1-1.45,2.08-.66,3.4C15.88,154.39,15.39,152.57,16.66,153.85Zm5.1-11.73c.22,0,.43-.23.63-.36-.17-.25-.3-.58-.55-.72s-.62.09-.8,0c-.52-.37-1.14-.81-.86-1.56a2.22,2.22,0,0,1,.95-1.18,1.21,1.21,0,0,1,1.63.65c.39,1.14,1.47,2,1.3,3.37a1.45,1.45,0,0,0,.94,1.51c.27.15.71,0,1.08,0-.11-.27-.32-.54-.31-.79,0-.79-.35-1.71.57-2.28s.5-1.32.49-2c0-.16-.5-.43-.78-.44s-.78.2-.82.4a8,8,0,0,0,0,1.63l-.51.24a5.92,5.92,0,0,1-.57-1.69,1.77,1.77,0,0,0-1-1.74c-1.57-.85-1.71-.64-3.26.54s-.33,2.32-.15,3.38C19.82,141.86,20.84,142.19,21.76,142.12Zm126.85-34.19c-.77.35-1.34-.16-2-.47-.85-.43-.86-.59-.13-1.13.41-.3,1-.59,1.12-1a2.39,2.39,0,0,0-.09-1.6c-.45-1-3.21-1.88-4.1-1.17-.46.37-.53,1.22-.75,1.86a.86.86,0,0,0,.43.24c.89.15.46-.81.88-1.08a4.82,4.82,0,0,0,.61-.59l.78.79a1.21,1.21,0,0,1,.19.2c.68.88.54,1-.48,1.92-.85.76-2.08,1.2-2.4,2.69a11.49,11.49,0,0,1,4.2.5,1.65,1.65,0,0,0,2-.37c.2-.27.49-.71.4-.91C149.05,107.18,148.85,107.82,148.61,107.93Zm-3.44-.47-.2-.36.2-.2.1.18a1.54,1.54,0,0,1,.08.19S145.23,107.4,145.17,107.46Zm-.89-71a1.43,1.43,0,0,0-.44.2l.79,1a.27.27,0,0,1,.07-.08l.06,0c0-.1.11-.19.12-.29C144.92,36.83,144.93,36.38,144.28,36.43Zm-5.44,32.06a1.81,1.81,0,0,0,.18.37l.2-.2-.2-.36C139,68.37,138.83,68.44,138.84,68.49ZM147.35,65c-.11,0-.2.29-.21.45a1,1,0,0,0,.18.48c0,.06.15.08.23.11,1.47.53,1.51.58.44,1.62-.74.72-1.08,1.28-.36,2.26.22.31.47,1.35-.32,1.69s-1.4-.23-1.85-.85a2,2,0,0,1-.14-.76l-.43.08a9.37,9.37,0,0,0,0,1.06c.12,1.26.44,1.56,1.67,1.61a5.89,5.89,0,0,0,.84,0c.52,0,1.19.27,1.5-.39s1-1.75.75-2.25c-.55-1.1-.17-1.65.49-2.38a1.55,1.55,0,0,0,.3-1.23A2.57,2.57,0,0,0,147.35,65Z"/></g></g></svg>